<?xml version="1.0" encoding="UTF-8" standalone="no"?>
<svg
   width="612pt"
   height="792pt"
   version="1.1"
   viewBox="0 0 612 792"
   id="svg625"
   xmlns:xlink="http://www.w3.org/1999/xlink"
   xmlns="http://www.w3.org/2000/svg"
   xmlns:svg="http://www.w3.org/2000/svg">
  <defs
     id="defs251">
    <g
       id="c">
      <path
         d="m 2.67,-6.64 v -0.5 c 0,-5.12 2.52,-5.84 3.55,-5.84 0.484,0 1.34,0.109 1.78,0.812 -0.297,0 -1.11,0 -1.11,0.906 0,0.625 0.484,0.938 0.938,0.938 0.312,0 0.922,-0.188 0.922,-0.984 0,-1.22 -0.891,-2.19 -2.56,-2.19 -2.59,0 -5.34,2.62 -5.34,7.09 0,5.41 2.36,6.86 4.25,6.86 2.25,0 4.17,-1.91 4.17,-4.59 0,-2.56 -1.81,-4.52 -4.06,-4.52 -1.38,0 -2.12,1.03 -2.53,2.02 z m 2.42,6.52 C 3.81,-0.12 3.2,-1.34 3.07,-1.64 2.711,-2.593 2.711,-4.22 2.711,-4.58 c 0,-1.58 0.641,-3.61 2.47,-3.61 0.328,0 1.25,0 1.89,1.25 0.359,0.75 0.359,1.8 0.359,2.78 0,0.969 0,1.98 -0.344,2.72 -0.609,1.22 -1.55,1.31 -2,1.31 z"
         id="path2" />
    </g>
    <g
       id="g">
      <path
         d="m 8.88,-14.4 c 0.109,-0.266 0.109,-0.328 0.109,-0.375 0,-0.219 -0.188,-0.406 -0.406,-0.406 -0.297,0 -0.375,0.203 -0.438,0.406 l -6.91,19.1 C 1.1412,4.591 1.1412,4.653 1.1412,4.684 c 0,0.234 0.172,0.406 0.406,0.406 0.281,0 0.359,-0.203 0.422,-0.406 z"
         id="path5" />
    </g>
    <g
       id="n">
      <path
         d="m 9.33,-6.48 c 0,-1.62 -0.109,-3.25 -0.812,-4.75 -0.938,-1.94 -2.59,-2.27 -3.45,-2.27 -1.22,0 -2.69,0.531 -3.52,2.42 -0.656,1.39 -0.75,2.97 -0.75,4.59 0,1.52 0.0781,3.34 0.906,4.89 0.875,1.64 2.34,2.05 3.34,2.05 1.09,0 2.64,-0.438 3.53,-2.36 0.641,-1.39 0.75,-2.98 0.75,-4.58 z M 5.05,0 C 4.253,0 3.07,-0.5 2.71,-2.45 2.476,-3.67 2.476,-5.53 2.476,-6.73 c 0,-1.3 0,-2.62 0.172,-3.72 0.375,-2.42 1.91,-2.59 2.41,-2.59 0.672,0 2,0.359 2.39,2.36 0.203,1.14 0.203,2.69 0.203,3.95 0,1.53 0,2.91 -0.219,4.2 C 7.12,-0.61 5.962,0 5.052,0 Z"
         id="path8" />
    </g>
    <g
       id="m">
      <path
         d="m 5.88,-7.14 c 1.66,-0.547 2.84,-1.95 2.84,-3.56 0,-1.66 -1.78,-2.8 -3.73,-2.8 -2.05,0 -3.59,1.22 -3.59,2.77 0,0.656 0.453,1.05 1.05,1.05 0.625,0 1.03,-0.438 1.03,-1.03 0,-1.02 -0.953,-1.02 -1.27,-1.02 0.641,-1 1.97,-1.25 2.7,-1.25 0.828,0 1.94,0.438 1.94,2.27 0,0.234 -0.0312,1.42 -0.562,2.31 -0.609,0.969 -1.3,1.03 -1.8,1.05 -0.172,0.0156 -0.656,0.0625 -0.797,0.0625 -0.156,0.0156 -0.297,0.0469 -0.297,0.25 0,0.219 0.141,0.219 0.484,0.219 h 0.891 c 1.66,0 2.41,1.38 2.41,3.36 0,2.77 -1.39,3.34 -2.28,3.34 -0.875,0 -2.39,-0.344 -3.11,-1.53 0.719,0.0938 1.34,-0.344 1.34,-1.12 0,-0.719 -0.547,-1.12 -1.14,-1.12 -0.484,0 -1.14,0.281 -1.14,1.17 0,1.84 1.89,3.19 4.09,3.19 2.48,0 4.33,-1.84 4.33,-3.92 0,-1.66 -1.28,-3.23 -3.39,-3.67 z"
         id="path11" />
    </g>
    <g
       id="l">
      <path
         d="m 2.58,-1.56 2.14,-2.08 c 3.17,-2.8 4.38,-3.89 4.38,-5.92 0,-2.31 -1.81,-3.94 -4.3,-3.94 -2.28,0 -3.78,1.88 -3.78,3.67 0,1.14 1.02,1.14 1.08,1.14 0.344,0 1.05,-0.25 1.05,-1.08 0,-0.531 -0.359,-1.06 -1.08,-1.06 -0.156,0 -0.203,0 -0.266,0.0312 0.469,-1.33 1.56,-2.08 2.75,-2.08 1.84,0 2.7,1.64 2.7,3.31 0,1.62 -1.02,3.22 -2.12,4.47 l -3.89,4.34 c -0.219,0.219 -0.219,0.266 -0.219,0.75 h 7.52 l 0.562,-3.53 h -0.5 c -0.109,0.609 -0.25,1.5 -0.453,1.81 -0.141,0.156 -1.47,0.156 -1.92,0.156 z"
         id="path14" />
    </g>
    <g
       id="k">
      <path
         d="m 5.95,-3.34 v 1.77 c 0,0.734 -0.0312,0.953 -1.53,0.953 H 3.998 v 0.625 c 0.828,-0.0625 1.88,-0.0625 2.73,-0.0625 0.844,0 1.92,0 2.75,0.0625 V -0.617 H 9.056 c -1.5,0 -1.55,-0.219 -1.55,-0.953 v -1.77 h 2.03 v -0.625 h -2.03 v -9.22 c 0,-0.406 0,-0.531 -0.328,-0.531 -0.172,0 -0.234,0 -0.406,0.234 l -6.22,9.52 v 0.625 z m 0.125,-0.625 h -4.94 l 4.94,-7.56 z"
         id="path17" />
    </g>
    <g
       id="j">
      <path
         d="m 5.95,-13 c 0,-0.484 0,-0.531 -0.469,-0.531 -1.25,1.3 -3.03,1.3 -3.69,1.3 v 0.625 c 0.406,0 1.61,0 2.66,-0.516 v 10.5 c 0,0.719 -0.0625,0.969 -1.88,0.969 H 1.915 v 0.625 c 0.719,-0.0625 2.47,-0.0625 3.28,-0.0625 0.81,0 2.58,0 3.28,0.0625 V -0.653 H 7.834 c -1.83,0 -1.89,-0.219 -1.89,-0.969 z"
         id="path20" />
    </g>
    <g
       id="ce">
      <path
         d="m 3.3,-9.27 c -0.922,-0.609 -1,-1.3 -1,-1.64 0,-1.23 1.31,-2.08 2.75,-2.08 1.48,0 2.78,1.05 2.78,2.5 0,1.16 -0.797,2.14 -2.02,2.84 z m 2.97,1.92 c 1.45,-0.75 2.45,-1.8 2.45,-3.14 0,-1.86 -1.81,-3.02 -3.66,-3.02 -2.02,0 -3.67,1.5 -3.67,3.39 0,0.359 0.0469,1.28 0.906,2.22 0.219,0.25 0.969,0.75 1.47,1.11 -1.17,0.578 -2.92,1.72 -2.92,3.72 0,2.16 2.08,3.52 4.2,3.52 2.3,0 4.22,-1.69 4.22,-3.86 0,-0.734 -0.234,-1.64 -1,-2.48 -0.375,-0.438 -0.703,-0.641 -2,-1.45 z m -2.03,0.859 2.5,1.58 c 0.562,0.391 1.52,1 1.52,2.23 0,1.5 -1.52,2.55 -3.19,2.55 -1.73,0 -3.2,-1.25 -3.2,-2.94 0,-1.17 0.656,-2.47 2.38,-3.42 z"
         id="path23" />
    </g>
    <g
       id="cd">
      <path
         d="m 9.09,-4.08 c 0,-2.41 -1.66,-4.44 -3.84,-4.44 -0.969,0 -1.84,0.328 -2.58,1.03 v -3.95 c 0.406,0.125 1.08,0.266 1.72,0.266 2.5,0 3.92,-1.84 3.92,-2.11 0,-0.109 -0.0625,-0.219 -0.203,-0.219 -0.0156,0 -0.0625,0 -0.172,0.0625 -0.406,0.188 -1.39,0.594 -2.75,0.594 -0.812,0 -1.75,-0.141 -2.69,-0.578 -0.172,-0.0625 -0.203,-0.0625 -0.25,-0.0625 -0.203,0 -0.203,0.172 -0.203,0.5 v 6 c 0,0.359 0,0.516 0.281,0.516 0.141,0 0.188,-0.0625 0.266,-0.172 0.219,-0.328 0.969,-1.42 2.61,-1.42 1.06,0 1.56,0.922 1.73,1.3 0.312,0.75 0.359,1.53 0.359,2.55 0,0.719 0,1.92 -0.484,2.78 -0.484,0.781 -1.23,1.31 -2.17,1.31 -1.48,0 -2.64,-1.08 -2.98,-2.27 0.0625,0.0156 0.125,0.0469 0.344,0.0469 0.672,0 1.02,-0.516 1.02,-1 0,-0.484 -0.344,-1 -1.02,-1 -0.281,0 -0.984,0.156 -0.984,1.08 0,1.75 1.39,3.72 3.67,3.72 2.34,0 4.41,-1.95 4.41,-4.53 z"
         id="path26" />
    </g>
    <g
       id="f">
      <path
         d="m 5.03,-10.6 c -2.69,1.91 -3.41,4.91 -3.41,7.08 0,2 0.609,5.11 3.41,7.09 0.125,0 0.297,0 0.297,-0.172 0,-0.0781 -0.0469,-0.109 -0.156,-0.203 -1.88,-1.7 -2.58,-4.12 -2.58,-6.7 0,-3.83 1.47,-5.7 2.62,-6.75 0.0625,-0.0625 0.109,-0.109 0.109,-0.172 0,-0.172 -0.172,-0.172 -0.297,-0.172 z"
         id="path29" />
    </g>
    <g
       id="b">
      <path
         d="M 7.17,-2.58 H 6.686 c -0.0469,0.312 -0.188,1.14 -0.375,1.28 -0.109,0.0938 -1.2,0.0938 -1.41,0.0938 h -2.61 c 1.48,-1.33 1.98,-1.72 2.84,-2.39 1.05,-0.828 2.03,-1.72 2.03,-3.06 0,-1.72 -1.52,-2.77 -3.33,-2.77 -1.77,0 -2.95,1.23 -2.95,2.55 0,0.719 0.609,0.781 0.75,0.781 0.344,0 0.75,-0.234 0.75,-0.75 0,-0.25 -0.0938,-0.75 -0.828,-0.75 0.438,-1 1.41,-1.31 2.06,-1.31 1.42,0 2.16,1.11 2.16,2.25 0,1.23 -0.875,2.22 -1.33,2.72 l -3.42,3.39 c -0.141,0.125 -0.141,0.156 -0.141,0.547 h 5.84 z"
         id="path32" />
    </g>
    <g
       id="a">
      <path
         d="m 7.33,-4.53 c 0,-1.56 -0.188,-2.67 -0.844,-3.67 -0.438,-0.656 -1.31,-1.22 -2.45,-1.22 -3.3,0 -3.3,3.88 -3.3,4.89 0,1.03 0,4.81 3.3,4.81 3.3,0 3.3,-3.78 3.3,-4.81 z m -3.3,4.42 c -0.656,0 -1.52,-0.391 -1.8,-1.55 -0.203,-0.844 -0.203,-2 -0.203,-3.05 0,-1.05 0,-2.12 0.203,-2.91 0.312,-1.11 1.22,-1.41 1.8,-1.41 0.766,0 1.5,0.453 1.75,1.28 0.234,0.766 0.25,1.8 0.25,3.03 0,1.05 0,2.09 -0.188,2.98 -0.281,1.3 -1.25,1.61 -1.81,1.61 z"
         id="path35" />
    </g>
    <g
       id="e">
      <path
         d="m 7,-10 c 0.0625,-0.172 0.0625,-0.219 0.0625,-0.25 0,-0.25 -0.203,-0.359 -0.344,-0.359 -0.234,0 -0.312,0.172 -0.375,0.359 l -5.28,13.2 C 1.001,3.122 1.001,3.169 1.001,3.2 c 0,0.25 0.188,0.359 0.328,0.359 0.25,0 0.312,-0.172 0.391,-0.359 z"
         id="path38" />
    </g>
    <g
       id="d">
      <path
         d="m 1.28,-10.6 c -0.109,0 -0.281,0 -0.281,0.172 0,0.0625 0.0469,0.109 0.141,0.219 1.22,1.11 2.58,3.03 2.58,6.69 0,2.97 -0.922,5.2 -2.45,6.59 -0.25,0.25 -0.266,0.266 -0.266,0.328 0,0.0781 0.0469,0.172 0.188,0.172 0.172,0 1.52,-0.938 2.45,-2.7 0.625,-1.19 1.05,-2.72 1.05,-4.38 0,-2 -0.594,-5.11 -3.41,-7.09 z"
         id="path41" />
    </g>
    <g
       id="h">
      <path
         d="m 4.75,-9.02 c 0,-0.391 -0.0312,-0.406 -0.422,-0.406 -0.906,0.891 -2.2,0.906 -2.78,0.906 v 0.516 c 0.344,0 1.28,0 2.06,-0.406 v 7.25 c 0,0.469 0,0.641 -1.42,0.641 H 1.641 v 0.516 c 0.266,-0.0156 2,-0.0625 2.53,-0.0625 0.438,0 2.23,0.0469 2.53,0.0625 V -0.519 H 6.17 c -1.42,0 -1.42,-0.172 -1.42,-0.641 z"
         id="path44" />
    </g>
    <g
       id="cb">
      <path
         d="m 5.03,-5.12 c 1.11,-0.531 1.83,-1.2 1.83,-2.19 0,-1.38 -1.44,-2.11 -2.81,-2.11 -1.56,0 -2.84,1.02 -2.84,2.38 0,0.656 0.312,1.14 0.578,1.42 0.25,0.297 0.344,0.359 1.19,0.859 -0.797,0.344 -2.2,1.11 -2.2,2.59 0,1.58 1.62,2.45 3.25,2.45 1.8,0 3.28,-1.14 3.28,-2.67 0,-0.938 -0.562,-1.73 -1.38,-2.22 C 5.74,-4.72 5.24,-5.017 5.037,-5.127 Z M 2.72,-6.46 C 2.361,-6.679 1.954,-7.054 1.954,-7.58 c 0,-0.891 1.05,-1.42 2.06,-1.42 1.11,0 2.08,0.703 2.08,1.7 0,1.27 -1.47,1.91 -1.5,1.91 -0.03,0 -0.0469,-0.0156 -0.156,-0.0625 z m 0.703,1.97 1.94,1.12 c 0.375,0.219 1.08,0.641 1.08,1.47 0,1.06 -1.17,1.73 -2.39,1.73 -1.31,0 -2.42,-0.828 -2.42,-2 0,-1.05 0.766,-1.86 1.8,-2.33 z"
         id="path47" />
    </g>
    <g
       id="i">
      <path
         d="m 2.12,-4.64 c 0,-1.16 0.109,-2.22 0.641,-3.08 0.484,-0.766 1.25,-1.3 2.16,-1.3 0.422,0 1,0.125 1.28,0.5 -0.359,0.0312 -0.656,0.266 -0.656,0.688 0,0.344 0.234,0.656 0.672,0.656 0.422,0 0.672,-0.281 0.672,-0.688 0,-0.828 -0.594,-1.56 -2,-1.56 -2.03,0 -4.12,1.88 -4.12,4.92 0,3.67 1.73,4.78 3.3,4.78 1.72,0 3.23,-1.31 3.23,-3.17 0,-1.81 -1.44,-3.14 -3.09,-3.14 -1.14,0 -1.77,0.75 -2.08,1.39 z m 1.94,4.47 C 3.341,-0.17 2.79,-0.576 2.5,-1.2 2.281,-1.622 2.172,-2.34 2.172,-3.18 c 0,-1.38 0.828,-2.44 1.95,-2.44 0.656,0 1.09,0.25 1.45,0.766 0.344,0.547 0.359,1.14 0.359,1.97 0,0.812 0,1.41 -0.391,1.95 -0.344,0.5 -0.797,0.766 -1.48,0.766 z"
         id="path50" />
    </g>
    <g
       id="ca">
      <path
         d="M 7.5,-2.33 V -2.846 H 5.94 v -6.33 c 0,-0.297 0,-0.391 -0.312,-0.391 -0.172,0 -0.234,0 -0.375,0.203 l -4.7,6.52 v 0.516 h 4.17 v 1.17 c 0,0.469 0,0.641 -1.14,0.641 H 3.192 v 0.516 c 0.719,-0.0312 1.62,-0.0625 2.14,-0.0625 0.52,0 1.42,0.0312 2.14,0.0625 V -0.517 H 7.081 c -1.14,0 -1.14,-0.172 -1.14,-0.641 v -1.17 z m -2.67,-5.7 v 5.19 H 1.08 Z"
         id="path53" />
    </g>
    <g
       id="cc">
      <path
         d="m 3.88,-4.73 c 1.11,0 1.91,0.766 1.91,2.28 0,1.77 -1.03,2.28 -1.84,2.28 -0.578,0 -1.83,-0.156 -2.42,-0.984 0.672,-0.0312 0.828,-0.5 0.828,-0.797 0,-0.453 -0.344,-0.781 -0.781,-0.781 -0.406,0 -0.797,0.234 -0.797,0.812 0,1.34 1.47,2.2 3.19,2.2 1.98,0 3.34,-1.31 3.34,-2.73 0,-1.11 -0.906,-2.22 -2.47,-2.55 1.48,-0.531 2.03,-1.59 2.03,-2.47 0,-1.11 -1.3,-1.95 -2.88,-1.95 -1.58,0 -2.78,0.766 -2.78,1.91 0,0.484 0.312,0.75 0.734,0.75 0.453,0 0.734,-0.328 0.734,-0.719 0,-0.422 -0.281,-0.719 -0.734,-0.75 0.5,-0.625 1.48,-0.781 2,-0.781 0.641,0 1.53,0.312 1.53,1.55 0,0.609 -0.188,1.25 -0.562,1.69 -0.469,0.547 -0.859,0.578 -1.58,0.609 -0.344,0.0312 -0.375,0.0312 -0.453,0.0469 -0.0156,0 -0.141,0.0312 -0.141,0.188 0,0.203 0.125,0.203 0.375,0.203 z"
         id="path56" />
    </g>
    <g
       id="bk">
      <path
         d="M 18.5,-123 V 0 h 121 V -22.2 H 43.4 v -28.3 h 71.5 V -72.7 H 43.4 V -101 h 96.1 v -22.2 z"
         id="path59" />
    </g>
    <g
       id="bj">
      <path
         d="M 25.9,0 V -19.4 L 41.7,-33.6 68.6,0 h 18 L 52.1,-43 86.6,-73.9 h -21 L 25.8,-38.3 V -73.9 H 11 V 0 Z"
         id="path62" />
    </g>
    <g
       id="bi">
      <path
         d="m 11.1,0 h 14.8 v -30.3 h 38.4 c 13.3,0 22.2,-8.72 22.2,-21.4 0,-13.3 -8.88,-22.2 -22.2,-22.2 H 11.1 Z m 14.8,-60.6 h 38.4 c 4.44,0 7.41,2.95 7.41,7.39 v 2.22 c 0,4.44 -2.97,7.39 -7.41,7.39 H 25.9 Z"
         id="path65" />
    </g>
    <g
       id="bh">
      <path
         d="m 9.23,0 h 12.3 V -42.5 L 59.73,0 h 11.1 v -61.6 h -12.3 v 42.5 L 20.33,-61.6 H 9.23 Z"
         id="path68" />
    </g>
    <g
       id="bg">
      <path
         d="m 4.92,-61.6 v 11.1 h 24.7 V 0 h 12.3 v -50.5 h 24.6 v -11.1 z"
         id="path71" />
    </g>
    <g
       id="bf">
      <path
         d="M 9.23,-61.6 V 0 h 12.3 v -25.3 h 34.5 v -11.1 h -34.5 v -14.2 h 46.8 v -11.1 z"
         id="path74" />
    </g>
    <g
       id="be">
      <path
         d="M 7.39,-49.3 V 0 h 24.6 c 14.8,0 25.6,-10.5 25.6,-24.6 0,-14.3 -10.8,-24.7 -25.6,-24.7 z m 9.86,8.88 h 14.8 c 8.88,0 15.3,6.7 15.3,15.8 0,9.16 -6.41,15.8 -15.3,15.8 h -14.8 z"
         id="path77" />
    </g>
    <g
       id="bd">
      <path
         d="M 7.39,-49.3 V 0 h 48.3 v -8.88 h -38.5 v -11.3 h 28.6 v -8.88 h -28.6 v -11.3 h 38.5 v -8.88 z"
         id="path80" />
    </g>
    <g
       id="bc">
      <path
         d="M 2.95,-49.3 23.15,0 h 14.8 l 20.2,-49.3 h -10.4 l -16.6,40.4 h -0.984 l -16.6,-40.4 z"
         id="path83" />
    </g>
    <g
       id="bb">
      <path
         d="m 7.39,0 h 9.86 v -20.2 h 25.6 c 8.88,0 14.8,-5.83 14.8,-14.3 0,-8.88 -5.92,-14.8 -14.8,-14.8 H 7.35 Z m 9.86,-40.4 h 25.6 c 2.97,0 4.94,1.97 4.94,4.94 v 1.47 c 0,2.97 -1.97,4.94 -4.94,4.94 h -25.6 z"
         id="path86" />
    </g>
    <g
       id="ba">
      <path
         d="M 12.7,0 V -14.9 H 34.5 V 0 h 7.27 V -36.3 H 34.5 v 14.9 H 12.7 V -36.3 H 5.45 V 0 Z"
         id="path89" />
    </g>
    <g
       id="az">
      <path
         d="m 22.5,0.719 c 9.78,0 17.2,-6.38 18.6,-15.6 h -7.75 c -1.23,5.14 -5.44,8.7 -10.9,8.7 -6.53,0 -11.2,-5.08 -11.2,-12 0,-6.92 4.72,-12 11.2,-12 5.44,0 9.64,3.55 10.9,8.7 h 7.75 c -1.44,-9.22 -8.84,-15.6 -18.6,-15.6 -10.9,0 -18.9,7.98 -18.9,18.9 0,10.92 7.98,18.8 18.9,18.8 z"
         id="path92" />
    </g>
    <g
       id="ay">
      <path
         d="m 12.7,0 v -9.5 l 7.77,-6.97 13.2,16.5 h 8.86 l -16.9,-21.1 16.9,-15.2 h -10.3 l -19.5,17.5 v -17.5 H 5.48 v 36.3 z"
         id="path95" />
    </g>
    <g
       id="ax">
      <path
         d="m 5.44,-17.4 c 0,10.4 7.39,18.1 17.4,18.1 10,0 17.4,-7.69 17.4,-18.1 v -18.9 h -7.25 v 18.9 c 0,6.53 -4.28,11.2 -10.2,11.2 -5.92,0 -10.2,-4.72 -10.2,-11.2 V -36.3 H 5.34 Z"
         id="path98" />
    </g>
    <g
       id="aw">
      <path
         d="M 5.44,-36.3 V 0 h 29 v -6.53 h -21.8 v -29.7 z"
         id="path101" />
    </g>
    <g
       id="av">
      <path
         d="M 3.62,-24.2 V 0 h 12.1 c 7.25,0 12.6,-5.12 12.6,-12.1 0,-7.02 -5.31,-12.1 -12.6,-12.1 z m 4.83,4.36 h 7.25 c 4.36,0 7.5,3.28 7.5,7.73 0,4.48 -3.14,7.73 -7.5,7.73 H 8.45 Z"
         id="path104" />
    </g>
    <g
       id="au">
      <path
         d="m 2.42,-12.1 c 0,7.25 5.31,12.6 12.6,12.6 7.29,0 12.6,-5.31 12.6,-12.6 0,-7.29 -5.31,-12.6 -12.6,-12.6 -7.29,0 -12.6,5.31 -12.6,12.6 z m 5.06,0 c 0,-4.59 3.14,-7.98 7.5,-7.98 4.34,0 7.48,3.39 7.48,7.98 0,4.59 -3.14,7.97 -7.48,7.97 -4.36,0 -7.5,-3.38 -7.5,-7.97 z"
         id="path107" />
    </g>
    <g
       id="at">
      <path
         d="m 3.62,0 h 4.83 v -9.91 h 12.6 c 4.36,0 7.25,-2.86 7.25,-7.02 0,-4.34 -2.89,-7.25 -7.25,-7.25 H 3.65 Z m 4.83,-19.8 h 12.6 c 1.45,0 2.42,0.969 2.42,2.42 v 0.719 c 0,1.45 -0.969,2.42 -2.42,2.42 H 8.45 Z"
         id="path110" />
    </g>
    <g
       id="as">
      <path
         d="M 3.62,-24.2 V 0 h 23.7 V -4.34 H 8.42 V -9.9 h 14 v -4.34 h -14 v -5.56 h 18.9 v -4.36 z"
         id="path113" />
    </g>
    <g
       id="ar">
      <path
         d="M 1.45,-24.2 11.36,0 h 7.25 l 9.91,-24.2 H 23.4 l -8.12,19.8 h -0.484 l -8.11,-19.8 z"
         id="path116" />
    </g>
    <g
       id="aq">
      <path
         d="m 1.94,-24.2 v 4.36 h 9.66 v 19.8 h 4.84 v -19.8 h 9.66 v -4.36 z"
         id="path119" />
    </g>
    <g
       id="ap">
      <path
         d="M 3.62,-24.2 V 0 h 4.83 v -9.91 h 13.5 v -4.34 H 8.45 v -5.56 h 18.4 v -4.36 z"
         id="path122" />
    </g>
    <g
       id="ao">
      <path
         d="m 8.45,0 v -9.91 h 8.22 L 22.81,0 h 5.45 l -5.45,-8.8 c -0.188,-0.344 -0.531,-0.766 -0.875,-1.16 3.83,-0.391 6.33,-3.09 6.33,-6.97 0,-4.34 -2.89,-7.25 -7.25,-7.25 h -17.4 v 24.2 z m 0,-19.8 h 12.6 c 1.45,0 2.42,0.969 2.42,2.42 v 0.719 c 0,1.45 -0.969,2.42 -2.42,2.42 H 8.45 Z"
         id="path125" />
    </g>
    <g
       id="an">
      <path
         d="m 1.81,-5.8 c 0,3.48 2.47,6.03 5.8,6.03 3.33,0 5.8,-2.55 5.8,-6.03 v -6.28 h -2.42 v 6.28 c 0,2.17 -1.42,3.75 -3.38,3.75 -1.96,0 -3.38,-1.58 -3.38,-3.75 v -6.28 H 1.81 Z"
         id="path128" />
    </g>
    <g
       id="aj">
      <path
         d="M 1.81,-12.1 V 0 h 11.8 V -2.17 H 4.2 v -2.78 h 7 v -2.17 h -7 V -9.9 h 9.41 v -2.17 z"
         id="path131" />
    </g>
    <g
       id="ai">
      <path
         d="M 4.23,0 V -3.17 L 6.81,-5.48 11.2,0 h 2.95 l -5.62,-7.03 5.62,-5.05 h -3.44 l -6.48,5.83 v -5.83 H 1.81 v 12.1 z"
         id="path134" />
    </g>
    <g
       id="ah">
      <path
         d="M 4.23,0 V -4.95 H 8.32 L 11.4,0 h 2.72 L 11.4,-4.39 c -0.0938,-0.172 -0.266,-0.391 -0.438,-0.578 1.91,-0.203 3.16,-1.55 3.16,-3.48 0,-2.17 -1.44,-3.62 -3.61,-3.62 h -8.7 v 12.1 z m 0,-9.91 h 6.28 c 0.719,0 1.2,0.484 1.2,1.2 v 0.375 c 0,0.719 -0.484,1.2 -1.2,1.2 H 4.23 Z"
         id="path137" />
    </g>
    <g
       id="ag">
      <path
         d="m 7.48,0.234 c 3.27,0 5.73,-2.12 6.22,-5.19 h -2.59 c -0.406,1.72 -1.81,2.91 -3.62,2.91 -2.17,0 -3.73,-1.7 -3.73,-4 0,-2.28 1.56,-3.98 3.73,-3.98 1.81,0 3.22,1.19 3.62,2.91 h 2.59 c -0.484,-3.06 -2.95,-5.19 -6.22,-5.19 -3.62,0 -6.28,2.66 -6.28,6.27 0,3.62 2.66,6.28 6.28,6.28 z"
         id="path140" />
    </g>
    <g
       id="af">
      <path
         d="m 0.969,-12.1 v 2.17 h 4.83 v 9.91 h 2.42 v -9.91 h 4.83 v -2.17 z"
         id="path143" />
    </g>
    <g
       id="ae">
      <path
         d="m 4.23,0 v -4.95 h 7.23 V 0 h 2.42 v -12.1 h -2.42 v 4.95 H 4.23 V -12.1 H 1.81 V 0 Z"
         id="path146" />
    </g>
    <g
       id="ad">
      <path
         d="M 1.81,0 H 4.23 V -8.33 L 11.71,0 h 2.17 v -12.1 h -2.42 v 8.33 L 3.98,-12.1 H 1.81 Z"
         id="path149" />
    </g>
    <g
       id="ac">
      <path
         d="M 1.81,-12.1 V 0 h 9.66 V -2.17 H 4.24 v -9.91 z"
         id="path152" />
    </g>
    <g
       id="am">
      <path
         d="m 1.45,0 h 11.8 V -2.17 H 4.92 l 8.09,-7.97 v -1.94 H 1.61 v 2.17 h 7.83 l -8.06,7.97 z"
         id="path155" />
    </g>
    <g
       id="al">
      <path
         d="M 0.719,-12.1 5.669,0 h 3.62 l 4.95,-12.1 h -2.56 l -4.05,9.91 h -0.25 l -4.06,-9.91 z"
         id="path158" />
    </g>
    <g
       id="ak">
      <path
         d="M 1.81,-12.1 V 0 h 2.42 v -4.95 h 6.75 V -7.12 H 4.23 V -9.9 h 9.17 v -2.17 z"
         id="path161" />
    </g>
    <g
       id="ab">
      <path
         d="M 3.53,0 V -4.12 H 9.56 V 0 h 2.02 V -10.1 H 9.56 v 4.14 H 3.53 V -10.1 H 1.51 V 0 Z"
         id="path164" />
    </g>
    <g
       id="v">
      <path
         d="m 1.2,0 h 9.88 V -1.81 H 4.13 l 6.75,-6.64 v -1.62 H 1.41 v 1.83 H 7.94 L 1.21,-1.6 Z"
         id="path167" />
    </g>
    <g
       id="u">
      <path
         d="m 0.812,-10.1 v 1.83 h 4.02 v 8.25 h 2.02 v -8.25 h 4.03 v -1.83 z"
         id="path170" />
    </g>
    <g
       id="t">
      <path
         d="M 3.53,0 V -4.12 H 6.95 L 9.5,0 h 2.28 L 9.5,-3.67 C 9.4219,-3.811 9.281,-3.982 9.141,-4.154 c 1.59,-0.156 2.64,-1.28 2.64,-2.89 0,-1.81 -1.2,-3.03 -3.02,-3.03 h -7.25 v 10.1 z m 0,-8.25 h 5.23 c 0.594,0 1,0.391 1,1 v 0.297 c 0,0.609 -0.406,1.02 -1,1.02 H 3.53 Z"
         id="path173" />
    </g>
    <g
       id="s">
      <path
         d="m 1.52,-4.83 c 0,2.89 2.05,5.03 4.83,5.03 2.78,0 4.83,-2.14 4.83,-5.03 v -5.25 H 9.16 v 5.25 c 0,1.81 -1.19,3.11 -2.81,3.11 -1.62,0 -2.81,-1.3 -2.81,-3.11 v -5.25 H 1.52 Z"
         id="path176" />
    </g>
    <g
       id="r">
      <path
         d="M 1.52,-10.1 V 0 h 5.03 c 3.02,0 5.23,-2.14 5.23,-5.03 0,-2.92 -2.22,-5.05 -5.23,-5.05 z m 2.02,1.83 h 3.02 c 1.81,0 3.12,1.36 3.12,3.22 0,1.88 -1.31,3.22 -3.12,3.22 H 3.54 Z"
         id="path179" />
    </g>
    <g
       id="q">
      <path
         d="m 1.52,0 h 2.02 v -4.12 h 5.23 c 1.81,0 3.02,-1.19 3.02,-2.92 0,-1.81 -1.2,-3.03 -3.02,-3.03 H 1.52 Z m 2.02,-8.25 h 5.23 c 0.594,0 1,0.391 1,1 v 0.297 c 0,0.609 -0.406,1.02 -1,1.02 H 3.54 Z"
         id="path182" />
    </g>
    <g
       id="p">
      <path
         d="M 1.52,0 H 3.54 V -6.95 L 9.77,0 h 1.81 V -10.1 H 9.56 v 6.95 L 3.33,-10.1 H 1.52 Z"
         id="path185" />
    </g>
    <g
       id="o">
      <path
         d="M 1.52,-10.1 V 0 h 9.86 V -1.81 H 3.54 V -4.12 H 9.37 V -5.93 H 3.54 v -2.31 h 7.84 v -1.83 z"
         id="path188" />
    </g>
    <g
       id="aa">
      <path
         d="M 3.53,0 V -2.64 L 5.67,-4.58 9.34,0 h 2.45 L 7.1,-5.86 11.79,-10.08 H 8.93 l -5.41,4.86 v -4.86 H 1.5 v 10.1 z"
         id="path191" />
    </g>
    <g
       id="z">
      <path
         d="M 1.52,-10.1 V 0 H 9.57 V -1.81 H 3.54 v -8.27 z"
         id="path194" />
    </g>
    <g
       id="y">
      <path
         d="m 6.25,0.203 c 2.72,0 4.77,-1.78 5.17,-4.33 H 9.26 c -0.344,1.42 -1.52,2.41 -3.02,2.41 -1.81,0 -3.12,-1.41 -3.12,-3.31 0,-1.92 1.31,-3.33 3.12,-3.33 1.5,0 2.67,0.984 3.02,2.42 h 2.16 c -0.406,-2.56 -2.45,-4.33 -5.17,-4.33 -3.03,0 -5.25,2.2 -5.25,5.23 0,3.02 2.22,5.23 5.25,5.23 z"
         id="path197" />
    </g>
    <g
       id="x">
      <path
         d="M 0.609,-10.1 4.729,0 h 3.02 l 4.14,-10.1 h -2.14 l -3.39,8.27 H 6.156 l -3.38,-8.27 z"
         id="path200" />
    </g>
    <g
       id="w">
      <path
         d="m 1,-5.03 c 0,3.02 2.22,5.23 5.25,5.23 3.02,0 5.23,-2.22 5.23,-5.23 0,-3.03 -2.22,-5.23 -5.23,-5.23 -3.03,0 -5.25,2.2 -5.25,5.23 z m 2.12,0 c 0,-1.92 1.31,-3.33 3.12,-3.33 1.81,0 3.11,1.41 3.11,3.33 0,1.91 -1.3,3.31 -3.11,3.31 -1.81,0 -3.12,-1.41 -3.12,-3.31 z"
         id="path203" />
    </g>
    <g
       id="bz">
      <path
         d="M 1.2,-8.06 V 0 h 4.03 c 2.42,0 4.19,-1.7 4.19,-4.03 0,-2.33 -1.77,-4.03 -4.19,-4.03 z m 1.61,1.45 h 2.42 c 1.45,0 2.5,1.09 2.5,2.58 0,1.5 -1.05,2.58 -2.5,2.58 H 2.81 Z"
         id="path206" />
    </g>
    <g
       id="bs">
      <path
         d="M 1.2,0 H 2.81 V -3.3 H 7 c 1.45,0 2.42,-0.953 2.42,-2.34 C 9.42,-7.09 8.451,-8.06 7,-8.06 H 1.2 Z M 2.81,-6.61 H 7 c 0.484,0 0.812,0.328 0.812,0.812 v 0.234 C 7.812,-5.08 7.484,-4.752 7,-4.752 H 2.81 Z"
         id="path209" />
    </g>
    <g
       id="br">
      <path
         d="M 2.81,0 V -3.3 H 7.65 V 0 H 9.26 V -8.06 H 7.65 v 3.31 H 2.81 V -8.06 H 1.2 V 0 Z"
         id="path212" />
    </g>
    <g
       id="bq">
      <path
         d="M 1.2,-8.06 V 0 H 9.11 V -1.45 H 2.81 V -3.29 H 7.48 V -4.74 H 2.81 V -6.6 h 6.3 v -1.45 z"
         id="path215" />
    </g>
    <g
       id="bp">
      <path
         d="m 5,0.156 c 2.17,0 3.81,-1.41 4.14,-3.45 H 7.41 c -0.266,1.14 -1.2,1.92 -2.41,1.92 -1.45,0 -2.5,-1.12 -2.5,-2.66 0,-1.54 1.05,-2.66 2.5,-2.66 1.2,0 2.14,0.797 2.41,1.94 H 9.14 C 8.812,-6.804 7.17,-8.224 5,-8.224 c -2.42,0 -4.19,1.78 -4.19,4.19 0,2.42 1.77,4.19 4.19,4.19 z"
         id="path218" />
    </g>
    <g
       id="bo">
      <path
         d="M 0.484,-8.06 3.784,0 h 2.42 l 3.3,-8.06 h -1.7 l -2.7,6.61 H 4.932 l -2.7,-6.61 z"
         id="path221" />
    </g>
    <g
       id="bn">
      <path
         d="m 0.641,-8.06 v 1.45 h 3.22 V 0 h 1.62 v -6.61 h 3.22 v -1.45 z"
         id="path224" />
    </g>
    <g
       id="bm">
      <path
         d="M 1.2,0 H 2.81 V -5.56 L 7.81,0 H 9.26 V -8.06 H 7.65 v 5.56 l -5,-5.56 H 1.2 Z"
         id="path227" />
    </g>
    <g
       id="bl">
      <path
         d="m 0.812,-4.03 c 0,2.42 1.77,4.19 4.19,4.19 2.41,0 4.19,-1.77 4.19,-4.19 0,-2.41 -1.78,-4.19 -4.19,-4.19 -2.42,0 -4.19,1.78 -4.19,4.19 z m 1.69,0 c 0,-1.53 1.05,-2.66 2.5,-2.66 1.44,0 2.48,1.12 2.48,2.66 0,1.54 -1.05,2.66 -2.48,2.66 -1.45,0 -2.5,-1.12 -2.5,-2.66 z"
         id="path230" />
    </g>
    <g
       id="by">
      <path
         d="M 2.81,0 V -2.11 L 4.54,-3.66 7.46,0 H 9.43 L 5.68,-4.69 9.43,-8.07 H 7.15 L 2.81,-4.18 V -8.07 H 1.2 v 8.06 z"
         id="path233" />
    </g>
    <g
       id="bx">
      <path
         d="M 2.81,0 V -3.3 H 5.56 L 7.61,0 H 9.42 L 7.61,-2.94 C 7.5475,-3.049 7.422,-3.19 7.313,-3.315 c 1.28,-0.141 2.11,-1.03 2.11,-2.33 0,-1.45 -0.969,-2.42 -2.42,-2.42 h -5.8 v 8.06 z m 0,-6.61 H 7 c 0.484,0 0.812,0.328 0.812,0.812 v 0.234 C 7.812,-5.08 7.484,-4.752 7,-4.752 H 2.81 Z"
         id="path236" />
    </g>
    <g
       id="bw">
      <path
         d="M 1.2,-8.06 V 0 H 2.81 V -3.3 H 7.33 V -4.75 H 2.81 v -1.86 h 6.12 v -1.45 z"
         id="path239" />
    </g>
    <g
       id="bv">
      <path
         d="m 0.969,0 h 7.89 v -1.45 h -5.56 l 5.41,-5.31 v -1.3 h -7.58 v 1.45 h 5.22 l -5.38,5.33 z"
         id="path242" />
    </g>
    <g
       id="bu">
      <path
         d="M 1.2,-8.06 V 0 H 7.65 V -1.45 H 2.81 v -6.61 z"
         id="path245" />
    </g>
    <g
       id="bt">
      <path
         d="m 1.2,-3.86 c 0,2.31 1.64,4.02 3.88,4.02 2.22,0 3.86,-1.7 3.86,-4.02 v -4.2 H 7.33 v 4.2 c 0,1.44 -0.953,2.48 -2.25,2.48 -1.31,0 -2.27,-1.05 -2.27,-2.48 v -4.2 H 1.2 Z"
         id="path248" />
    </g>
  </defs>
  <rect
     style="fill:#ffffff;fill-opacity:1;stroke-width:1.50002"
     id="rect908"
     width="612"
     height="792"
     x="0"
     y="4.2632564e-14" />
  <g
     id="g261">
    <use
       x="53.91848"
       y="106.3798"
       xlink:href="#c"
       id="use253" />
    <use
       x="64.054779"
       y="106.3798"
       xlink:href="#g"
       id="use255" />
    <use
       x="74.191078"
       y="106.3798"
       xlink:href="#c"
       id="use257" />
    <use
       x="84.327377"
       y="106.3798"
       xlink:href="#n"
       id="use259" />
  </g>
  <g
     fill="#999999"
     id="g279">
    <use
       x="97.232719"
       y="99.021706"
       xlink:href="#f"
       id="use263" />
    <use
       x="103.56749"
       y="99.021706"
       xlink:href="#b"
       id="use265" />
    <use
       x="111.64771"
       y="99.021706"
       xlink:href="#a"
       id="use267" />
    <use
       x="119.72794"
       y="99.021706"
       xlink:href="#e"
       id="use269" />
    <use
       x="127.80817"
       y="99.021706"
       xlink:href="#b"
       id="use271" />
    <use
       x="135.8884"
       y="99.021706"
       xlink:href="#a"
       id="use273" />
    <use
       x="143.96863"
       y="99.021706"
       xlink:href="#a"
       id="use275" />
    <use
       x="152.04886"
       y="99.021706"
       xlink:href="#d"
       id="use277" />
  </g>
  <g
     id="g291">
    <use
       x="287.69958"
       y="159.22536"
       xlink:href="#bk"
       id="use281" />
    <use
       x="53.91848"
       y="217.50993"
       xlink:href="#c"
       id="use283" />
    <use
       x="64.054779"
       y="217.50993"
       xlink:href="#g"
       id="use285" />
    <use
       x="74.191078"
       y="217.50993"
       xlink:href="#m"
       id="use287" />
    <use
       x="84.327377"
       y="217.50993"
       xlink:href="#c"
       id="use289" />
  </g>
  <g
     fill="#999999"
     id="g309">
    <use
       x="97.232719"
       y="210.15388"
       xlink:href="#f"
       id="use293" />
    <use
       x="103.56749"
       y="210.15388"
       xlink:href="#b"
       id="use295" />
    <use
       x="111.64771"
       y="210.15388"
       xlink:href="#a"
       id="use297" />
    <use
       x="119.72794"
       y="210.15388"
       xlink:href="#e"
       id="use299" />
    <use
       x="127.80817"
       y="210.15388"
       xlink:href="#h"
       id="use301" />
    <use
       x="135.8884"
       y="210.15388"
       xlink:href="#b"
       id="use303" />
    <use
       x="143.96863"
       y="210.15388"
       xlink:href="#a"
       id="use305" />
    <use
       x="152.04886"
       y="210.15388"
       xlink:href="#d"
       id="use307" />
  </g>
  <g
     id="g323">
    <use
       x="242.72997"
       y="245.71457"
       xlink:href="#bj"
       id="use311" />
    <use
       x="393.40634"
       y="245.71457"
       xlink:href="#bi"
       id="use313" />
    <use
       x="53.91848"
       y="297.83591"
       xlink:href="#c"
       id="use315" />
    <use
       x="64.054779"
       y="297.83591"
       xlink:href="#g"
       id="use317" />
    <use
       x="74.191078"
       y="297.83591"
       xlink:href="#m"
       id="use319" />
    <use
       x="84.327377"
       y="297.83591"
       xlink:href="#n"
       id="use321" />
  </g>
  <g
     fill="#999999"
     id="g341">
    <use
       x="97.232719"
       y="290.47781"
       xlink:href="#f"
       id="use325" />
    <use
       x="103.56749"
       y="290.47781"
       xlink:href="#b"
       id="use327" />
    <use
       x="111.64771"
       y="290.47781"
       xlink:href="#a"
       id="use329" />
    <use
       x="119.72794"
       y="290.47781"
       xlink:href="#e"
       id="use331" />
    <use
       x="127.80817"
       y="290.47781"
       xlink:href="#h"
       id="use333" />
    <use
       x="135.8884"
       y="290.47781"
       xlink:href="#a"
       id="use335" />
    <use
       x="143.96863"
       y="290.47781"
       xlink:href="#a"
       id="use337" />
    <use
       x="152.04886"
       y="290.47781"
       xlink:href="#d"
       id="use339" />
  </g>
  <g
     id="g357">
    <use
       x="202.36945"
       y="319.87158"
       xlink:href="#bh"
       id="use343" />
    <use
       x="331.75299"
       y="319.87158"
       xlink:href="#bg"
       id="use345" />
    <use
       x="452.51096"
       y="319.87158"
       xlink:href="#bf"
       id="use347" />
    <use
       x="61.999264"
       y="365.83917"
       xlink:href="#c"
       id="use349" />
    <use
       x="72.135567"
       y="365.83917"
       xlink:href="#g"
       id="use351" />
    <use
       x="82.271858"
       y="365.83917"
       xlink:href="#l"
       id="use353" />
    <use
       x="92.408157"
       y="365.83917"
       xlink:href="#k"
       id="use355" />
  </g>
  <g
     fill="#999999"
     id="g373">
    <use
       x="105.31351"
       y="358.48312"
       xlink:href="#f"
       id="use359" />
    <use
       x="111.64827"
       y="358.48312"
       xlink:href="#b"
       id="use361" />
    <use
       x="119.7285"
       y="358.48312"
       xlink:href="#a"
       id="use363" />
    <use
       x="127.80872"
       y="358.48312"
       xlink:href="#e"
       id="use365" />
    <use
       x="135.88896"
       y="358.48312"
       xlink:href="#cb"
       id="use367" />
    <use
       x="143.96918"
       y="358.48312"
       xlink:href="#a"
       id="use369" />
    <use
       x="152.04941"
       y="358.48312"
       xlink:href="#d"
       id="use371" />
  </g>
  <g
     id="g391">
    <use
       x="181.85794"
       y="381.71277"
       xlink:href="#be"
       id="use375" />
    <use
       x="283.78741"
       y="381.71277"
       xlink:href="#bd"
       id="use377" />
    <use
       x="384.82971"
       y="381.71277"
       xlink:href="#bc"
       id="use379" />
    <use
       x="485.37909"
       y="381.71277"
       xlink:href="#bb"
       id="use381" />
    <use
       x="61.999264"
       y="423.55887"
       xlink:href="#c"
       id="use383" />
    <use
       x="72.135567"
       y="423.55887"
       xlink:href="#g"
       id="use385" />
    <use
       x="82.271858"
       y="423.55887"
       xlink:href="#j"
       id="use387" />
    <use
       x="92.408157"
       y="423.55887"
       xlink:href="#ce"
       id="use389" />
  </g>
  <g
     fill="#999999"
     id="g407">
    <use
       x="105.31351"
       y="416.20282"
       xlink:href="#f"
       id="use393" />
    <use
       x="111.64827"
       y="416.20282"
       xlink:href="#b"
       id="use395" />
    <use
       x="119.7285"
       y="416.20282"
       xlink:href="#a"
       id="use397" />
    <use
       x="127.80872"
       y="416.20282"
       xlink:href="#e"
       id="use399" />
    <use
       x="135.88896"
       y="416.20282"
       xlink:href="#i"
       id="use401" />
    <use
       x="143.96918"
       y="416.20282"
       xlink:href="#a"
       id="use403" />
    <use
       x="152.04941"
       y="416.20282"
       xlink:href="#d"
       id="use405" />
  </g>
  <g
     id="g419">
    <use
       x="197.13307"
       y="433.28296"
       xlink:href="#ba"
       id="use409" />
    <use
       x="273.20346"
       y="433.28296"
       xlink:href="#az"
       id="use411" />
    <use
       x="346.95334"
       y="433.28296"
       xlink:href="#ay"
       id="use413" />
    <use
       x="420.19556"
       y="433.28296"
       xlink:href="#ax"
       id="use415" />
    <use
       x="494.88815"
       y="433.28296"
       xlink:href="#aw"
       id="use417" />
  </g>
  <path
     d="M 171,475 H 558 V 456.6 H 171 Z"
     fill="#00adef"
     id="path421" />
  <g
     id="g431">
    <use
       x="61.999264"
       y="516.96912"
       xlink:href="#c"
       id="use423" />
    <use
       x="72.135567"
       y="516.96912"
       xlink:href="#g"
       id="use425" />
    <use
       x="82.271858"
       y="516.96912"
       xlink:href="#j"
       id="use427" />
    <use
       x="92.408157"
       y="516.96912"
       xlink:href="#l"
       id="use429" />
  </g>
  <g
     fill="#999999"
     id="g447">
    <use
       x="105.31351"
       y="509.61304"
       xlink:href="#f"
       id="use433" />
    <use
       x="111.64827"
       y="509.61304"
       xlink:href="#b"
       id="use435" />
    <use
       x="119.7285"
       y="509.61304"
       xlink:href="#a"
       id="use437" />
    <use
       x="127.80872"
       y="509.61304"
       xlink:href="#e"
       id="use439" />
    <use
       x="135.88896"
       y="509.61304"
       xlink:href="#ca"
       id="use441" />
    <use
       x="143.96918"
       y="509.61304"
       xlink:href="#a"
       id="use443" />
    <use
       x="152.04941"
       y="509.61304"
       xlink:href="#d"
       id="use445" />
  </g>
  <g
     id="g471">
    <use
       x="177.3329"
       y="522.84692"
       xlink:href="#av"
       id="use449" />
    <use
       x="227.35039"
       y="522.84692"
       xlink:href="#au"
       id="use451" />
    <use
       x="276.64301"
       y="522.84692"
       xlink:href="#at"
       id="use453" />
    <use
       x="326.41885"
       y="522.84692"
       xlink:href="#as"
       id="use455" />
    <use
       x="375.95309"
       y="522.84692"
       xlink:href="#ar"
       id="use457" />
    <use
       x="425.2457"
       y="522.84692"
       xlink:href="#aq"
       id="use459" />
    <use
       x="472.60526"
       y="522.84692"
       xlink:href="#ap"
       id="use461" />
    <use
       x="521.17297"
       y="522.84692"
       xlink:href="#ao"
       id="use463" />
    <use
       x="72.134705"
       y="564.69116"
       xlink:href="#c"
       id="use465" />
    <use
       x="82.271004"
       y="564.69116"
       xlink:href="#g"
       id="use467" />
    <use
       x="92.407303"
       y="564.69116"
       xlink:href="#c"
       id="use469" />
  </g>
  <g
     fill="#999999"
     id="g487">
    <use
       x="105.31326"
       y="557.33508"
       xlink:href="#f"
       id="use473" />
    <use
       x="111.64803"
       y="557.33508"
       xlink:href="#b"
       id="use475" />
    <use
       x="119.72826"
       y="557.33508"
       xlink:href="#a"
       id="use477" />
    <use
       x="127.80848"
       y="557.33508"
       xlink:href="#e"
       id="use479" />
    <use
       x="135.8887"
       y="557.33508"
       xlink:href="#b"
       id="use481" />
    <use
       x="143.96893"
       y="557.33508"
       xlink:href="#a"
       id="use483" />
    <use
       x="152.04916"
       y="557.33508"
       xlink:href="#d"
       id="use485" />
  </g>
  <g
     id="g513">
    <use
       x="223.2814"
       y="570.5683"
       xlink:href="#an"
       id="use489" />
    <use
       x="248.14511"
       y="570.5683"
       xlink:href="#aj"
       id="use491" />
    <use
       x="272.91217"
       y="570.5683"
       xlink:href="#ai"
       id="use493" />
    <use
       x="297.55844"
       y="570.5683"
       xlink:href="#ah"
       id="use495" />
    <use
       x="322.3255"
       y="570.5683"
       xlink:href="#ag"
       id="use497" />
    <use
       x="345.93274"
       y="570.5683"
       xlink:href="#af"
       id="use499" />
    <use
       x="369.63663"
       y="570.5683"
       xlink:href="#ae"
       id="use501" />
    <use
       x="395.00778"
       y="570.5683"
       xlink:href="#ad"
       id="use503" />
    <use
       x="420.37891"
       y="570.5683"
       xlink:href="#ac"
       id="use505" />
    <use
       x="442.48807"
       y="570.5683"
       xlink:href="#am"
       id="use507" />
    <use
       x="466.89267"
       y="570.5683"
       xlink:href="#al"
       id="use509" />
    <use
       x="491.53894"
       y="570.5683"
       xlink:href="#ak"
       id="use511" />
  </g>
  <path
     d="M 171,612 H 558 V 593.6 H 171 Z"
     fill="#ff0000"
     id="path515" />
  <g
     id="g523">
    <use
       x="72.134705"
       y="654.25421"
       xlink:href="#c"
       id="use517" />
    <use
       x="82.271004"
       y="654.25421"
       xlink:href="#g"
       id="use519" />
    <use
       x="92.407303"
       y="654.25421"
       xlink:href="#cd"
       id="use521" />
  </g>
  <g
     fill="#999999"
     id="g539">
    <use
       x="105.31326"
       y="646.89819"
       xlink:href="#f"
       id="use525" />
    <use
       x="111.64803"
       y="646.89819"
       xlink:href="#b"
       id="use527" />
    <use
       x="119.72826"
       y="646.89819"
       xlink:href="#a"
       id="use529" />
    <use
       x="127.80848"
       y="646.89819"
       xlink:href="#e"
       id="use531" />
    <use
       x="135.8887"
       y="646.89819"
       xlink:href="#h"
       id="use533" />
    <use
       x="143.96893"
       y="646.89819"
       xlink:href="#i"
       id="use535" />
    <use
       x="152.04916"
       y="646.89819"
       xlink:href="#d"
       id="use537" />
  </g>
  <g
     id="g575">
    <use
       x="226.51694"
       y="660.13324"
       xlink:href="#ab"
       id="use541" />
    <use
       x="247.65944"
       y="660.13324"
       xlink:href="#v"
       id="use543" />
    <use
       x="267.99652"
       y="660.13324"
       xlink:href="#u"
       id="use545" />
    <use
       x="287.72949"
       y="660.13324"
       xlink:href="#t"
       id="use547" />
    <use
       x="308.56995"
       y="660.13324"
       xlink:href="#s"
       id="use549" />
    <use
       x="329.30975"
       y="660.13324"
       xlink:href="#r"
       id="use551" />
    <use
       x="350.15021"
       y="660.13324"
       xlink:href="#q"
       id="use553" />
    <use
       x="370.88998"
       y="660.13324"
       xlink:href="#p"
       id="use555" />
    <use
       x="392.03247"
       y="660.13324"
       xlink:href="#o"
       id="use557" />
    <use
       x="412.67157"
       y="660.13324"
       xlink:href="#aa"
       id="use559" />
    <use
       x="433.20999"
       y="660.13324"
       xlink:href="#z"
       id="use561" />
    <use
       x="451.03012"
       y="660.13324"
       xlink:href="#y"
       id="use563" />
    <use
       x="470.7027"
       y="660.13324"
       xlink:href="#x"
       id="use565" />
    <use
       x="490.4357"
       y="660.13324"
       xlink:href="#w"
       id="use567" />
    <use
       x="72.134705"
       y="701.97528"
       xlink:href="#c"
       id="use569" />
    <use
       x="82.271004"
       y="701.97528"
       xlink:href="#g"
       id="use571" />
    <use
       x="92.407303"
       y="701.97528"
       xlink:href="#k"
       id="use573" />
  </g>
  <g
     fill="#999999"
     id="g591">
    <use
       x="105.31326"
       y="694.6192"
       xlink:href="#f"
       id="use577" />
    <use
       x="111.64803"
       y="694.6192"
       xlink:href="#b"
       id="use579" />
    <use
       x="119.72826"
       y="694.6192"
       xlink:href="#a"
       id="use581" />
    <use
       x="127.80848"
       y="694.6192"
       xlink:href="#e"
       id="use583" />
    <use
       x="135.8887"
       y="694.6192"
       xlink:href="#h"
       id="use585" />
    <use
       x="143.96893"
       y="694.6192"
       xlink:href="#cc"
       id="use587" />
    <use
       x="152.04916"
       y="694.6192"
       xlink:href="#d"
       id="use589" />
  </g>
  <g
     id="g623">
    <use
       x="245.9039"
       y="707.85364"
       xlink:href="#bz"
       id="use593" />
    <use
       x="262.55991"
       y="707.85364"
       xlink:href="#bs"
       id="use595" />
    <use
       x="279.15149"
       y="707.85364"
       xlink:href="#br"
       id="use597" />
    <use
       x="296.06525"
       y="707.85364"
       xlink:href="#bq"
       id="use599" />
    <use
       x="312.17355"
       y="707.85364"
       xlink:href="#bp"
       id="use601" />
    <use
       x="327.91141"
       y="707.85364"
       xlink:href="#bo"
       id="use603" />
    <use
       x="344.34189"
       y="707.85364"
       xlink:href="#bn"
       id="use605" />
    <use
       x="360.12805"
       y="707.85364"
       xlink:href="#bm"
       id="use607" />
    <use
       x="377.04181"
       y="707.85364"
       xlink:href="#bl"
       id="use609" />
    <use
       x="393.47229"
       y="707.85364"
       xlink:href="#by"
       id="use611" />
    <use
       x="409.9028"
       y="707.85364"
       xlink:href="#bx"
       id="use613" />
    <use
       x="426.65546"
       y="707.85364"
       xlink:href="#bw"
       id="use615" />
    <use
       x="442.84433"
       y="707.85364"
       xlink:href="#bv"
       id="use617" />
    <use
       x="459.11374"
       y="707.85364"
       xlink:href="#bu"
       id="use619" />
    <use
       x="473.3696"
       y="707.85364"
       xlink:href="#bt"
       id="use621" />
  </g>
</svg>
