<?xml version="1.0" encoding="UTF-8"?>
<svg width="612pt" height="792pt" version="1.1" viewBox="0 0 612 792" xmlns="http://www.w3.org/2000/svg" xmlns:xlink="http://www.w3.org/1999/xlink">
  <defs>
    <g id="c">
      <path d="m2.67-6.64v-0.5c0-5.12 2.52-5.84 3.55-5.84 0.484 0 1.34 0.109 1.78 0.812-0.297 0-1.11 0-1.11 0.906 0 0.625 0.484 0.938 0.938 0.938 0.312 0 0.922-0.188 0.922-0.984 0-1.22-0.891-2.19-2.56-2.19-2.59 0-5.34 2.62-5.34 7.09 0 5.41 2.36 6.86 4.25 6.86 2.25 0 4.17-1.91 4.17-4.59 0-2.56-1.81-4.52-4.06-4.52-1.38 0-2.12 1.03-2.53 2.02zm2.42 6.52c-1.28 0-1.89-1.22-2.02-1.52-0.359-0.953-0.359-2.58-0.359-2.94 0-1.58 0.641-3.61 2.47-3.61 0.328 0 1.25 0 1.89 1.25 0.359 0.75 0.359 1.8 0.359 2.78 0 0.969 0 1.98-0.344 2.72-0.609 1.22-1.55 1.31-2 1.31z"/>
    </g>
    <g id="g">
      <path d="m8.88-14.4c0.109-0.266 0.109-0.328 0.109-0.375 0-0.219-0.188-0.406-0.406-0.406-0.297 0-0.375 0.203-0.438 0.406l-6.91 19.1c-0.0938 0.266-0.0938 0.328-0.0938 0.359 0 0.234 0.172 0.406 0.406 0.406 0.281 0 0.359-0.203 0.422-0.406z"/>
    </g>
    <g id="n">
      <path d="m9.33-6.48c0-1.62-0.109-3.25-0.812-4.75-0.938-1.94-2.59-2.27-3.45-2.27-1.22 0-2.69 0.531-3.52 2.42-0.656 1.39-0.75 2.97-0.75 4.59 0 1.52 0.0781 3.34 0.906 4.89 0.875 1.64 2.34 2.05 3.34 2.05 1.09 0 2.64-0.438 3.53-2.36 0.641-1.39 0.75-2.98 0.75-4.58zm-4.28 6.48c-0.797 0-1.98-0.5-2.34-2.45-0.234-1.22-0.234-3.08-0.234-4.28 0-1.3 0-2.62 0.172-3.72 0.375-2.42 1.91-2.59 2.41-2.59 0.672 0 2 0.359 2.39 2.36 0.203 1.14 0.203 2.69 0.203 3.95 0 1.53 0 2.91-0.219 4.2-0.312 1.92-1.47 2.53-2.38 2.53z"/>
    </g>
    <g id="m">
      <path d="m5.88-7.14c1.66-0.547 2.84-1.95 2.84-3.56 0-1.66-1.78-2.8-3.73-2.8-2.05 0-3.59 1.22-3.59 2.77 0 0.656 0.453 1.05 1.05 1.05 0.625 0 1.03-0.438 1.03-1.03 0-1.02-0.953-1.02-1.27-1.02 0.641-1 1.97-1.25 2.7-1.25 0.828 0 1.94 0.438 1.94 2.27 0 0.234-0.0312 1.42-0.562 2.31-0.609 0.969-1.3 1.03-1.8 1.05-0.172 0.0156-0.656 0.0625-0.797 0.0625-0.156 0.0156-0.297 0.0469-0.297 0.25 0 0.219 0.141 0.219 0.484 0.219h0.891c1.66 0 2.41 1.38 2.41 3.36 0 2.77-1.39 3.34-2.28 3.34-0.875 0-2.39-0.344-3.11-1.53 0.719 0.0938 1.34-0.344 1.34-1.12 0-0.719-0.547-1.12-1.14-1.12-0.484 0-1.14 0.281-1.14 1.17 0 1.84 1.89 3.19 4.09 3.19 2.48 0 4.33-1.84 4.33-3.92 0-1.66-1.28-3.23-3.39-3.67z"/>
    </g>
    <g id="l">
      <path d="m2.58-1.56 2.14-2.08c3.17-2.8 4.38-3.89 4.38-5.92 0-2.31-1.81-3.94-4.3-3.94-2.28 0-3.78 1.88-3.78 3.67 0 1.14 1.02 1.14 1.08 1.14 0.344 0 1.05-0.25 1.05-1.08 0-0.531-0.359-1.06-1.08-1.06-0.156 0-0.203 0-0.266 0.0312 0.469-1.33 1.56-2.08 2.75-2.08 1.84 0 2.7 1.64 2.7 3.31 0 1.62-1.02 3.22-2.12 4.47l-3.89 4.34c-0.219 0.219-0.219 0.266-0.219 0.75h7.52l0.562-3.53h-0.5c-0.109 0.609-0.25 1.5-0.453 1.81-0.141 0.156-1.47 0.156-1.92 0.156z"/>
    </g>
    <g id="k">
      <path d="m5.95-3.34v1.77c0 0.734-0.0312 0.953-1.53 0.953h-0.422v0.625c0.828-0.0625 1.88-0.0625 2.73-0.0625 0.844 0 1.92 0 2.75 0.0625v-0.625h-0.422c-1.5 0-1.55-0.219-1.55-0.953v-1.77h2.03v-0.625h-2.03v-9.22c0-0.406 0-0.531-0.328-0.531-0.172 0-0.234 0-0.406 0.234l-6.22 9.52v0.625zm0.125-0.625h-4.94l4.94-7.56z"/>
    </g>
    <g id="j">
      <path d="m5.95-13c0-0.484 0-0.531-0.469-0.531-1.25 1.3-3.03 1.3-3.69 1.3v0.625c0.406 0 1.61 0 2.66-0.516v10.5c0 0.719-0.0625 0.969-1.88 0.969h-0.656v0.625c0.719-0.0625 2.47-0.0625 3.28-0.0625s2.58 0 3.28 0.0625v-0.625h-0.641c-1.83 0-1.89-0.219-1.89-0.969z"/>
    </g>
    <g id="ce">
      <path d="m3.3-9.27c-0.922-0.609-1-1.3-1-1.64 0-1.23 1.31-2.08 2.75-2.08 1.48 0 2.78 1.05 2.78 2.5 0 1.16-0.797 2.14-2.02 2.84zm2.97 1.92c1.45-0.75 2.45-1.8 2.45-3.14 0-1.86-1.81-3.02-3.66-3.02-2.02 0-3.67 1.5-3.67 3.39 0 0.359 0.0469 1.28 0.906 2.22 0.219 0.25 0.969 0.75 1.47 1.11-1.17 0.578-2.92 1.72-2.92 3.72 0 2.16 2.08 3.52 4.2 3.52 2.3 0 4.22-1.69 4.22-3.86 0-0.734-0.234-1.64-1-2.48-0.375-0.438-0.703-0.641-2-1.45zm-2.03 0.859 2.5 1.58c0.562 0.391 1.52 1 1.52 2.23 0 1.5-1.52 2.55-3.19 2.55-1.73 0-3.2-1.25-3.2-2.94 0-1.17 0.656-2.47 2.38-3.42z"/>
    </g>
    <g id="cd">
      <path d="m9.09-4.08c0-2.41-1.66-4.44-3.84-4.44-0.969 0-1.84 0.328-2.58 1.03v-3.95c0.406 0.125 1.08 0.266 1.72 0.266 2.5 0 3.92-1.84 3.92-2.11 0-0.109-0.0625-0.219-0.203-0.219-0.0156 0-0.0625 0-0.172 0.0625-0.406 0.188-1.39 0.594-2.75 0.594-0.812 0-1.75-0.141-2.69-0.578-0.172-0.0625-0.203-0.0625-0.25-0.0625-0.203 0-0.203 0.172-0.203 0.5v6c0 0.359 0 0.516 0.281 0.516 0.141 0 0.188-0.0625 0.266-0.172 0.219-0.328 0.969-1.42 2.61-1.42 1.06 0 1.56 0.922 1.73 1.3 0.312 0.75 0.359 1.53 0.359 2.55 0 0.719 0 1.92-0.484 2.78-0.484 0.781-1.23 1.31-2.17 1.31-1.48 0-2.64-1.08-2.98-2.27 0.0625 0.0156 0.125 0.0469 0.344 0.0469 0.672 0 1.02-0.516 1.02-1s-0.344-1-1.02-1c-0.281 0-0.984 0.156-0.984 1.08 0 1.75 1.39 3.72 3.67 3.72 2.34 0 4.41-1.95 4.41-4.53z"/>
    </g>
    <g id="f">
      <path d="m5.03-10.6c-2.69 1.91-3.41 4.91-3.41 7.08 0 2 0.609 5.11 3.41 7.09 0.125 0 0.297 0 0.297-0.172 0-0.0781-0.0469-0.109-0.156-0.203-1.88-1.7-2.58-4.12-2.58-6.7 0-3.83 1.47-5.7 2.62-6.75 0.0625-0.0625 0.109-0.109 0.109-0.172 0-0.172-0.172-0.172-0.297-0.172z"/>
    </g>
    <g id="b">
      <path d="m7.17-2.58h-0.484c-0.0469 0.312-0.188 1.14-0.375 1.28-0.109 0.0938-1.2 0.0938-1.41 0.0938h-2.61c1.48-1.33 1.98-1.72 2.84-2.39 1.05-0.828 2.03-1.72 2.03-3.06 0-1.72-1.52-2.77-3.33-2.77-1.77 0-2.95 1.23-2.95 2.55 0 0.719 0.609 0.781 0.75 0.781 0.344 0 0.75-0.234 0.75-0.75 0-0.25-0.0938-0.75-0.828-0.75 0.438-1 1.41-1.31 2.06-1.31 1.42 0 2.16 1.11 2.16 2.25 0 1.23-0.875 2.22-1.33 2.72l-3.42 3.39c-0.141 0.125-0.141 0.156-0.141 0.547h5.84z"/>
    </g>
    <g id="a">
      <path d="m7.33-4.53c0-1.56-0.188-2.67-0.844-3.67-0.438-0.656-1.31-1.22-2.45-1.22-3.3 0-3.3 3.88-3.3 4.89 0 1.03 0 4.81 3.3 4.81s3.3-3.78 3.3-4.81zm-3.3 4.42c-0.656 0-1.52-0.391-1.8-1.55-0.203-0.844-0.203-2-0.203-3.05s0-2.12 0.203-2.91c0.312-1.11 1.22-1.41 1.8-1.41 0.766 0 1.5 0.453 1.75 1.28 0.234 0.766 0.25 1.8 0.25 3.03 0 1.05 0 2.09-0.188 2.98-0.281 1.3-1.25 1.61-1.81 1.61z"/>
    </g>
    <g id="e">
      <path d="m7-10c0.0625-0.172 0.0625-0.219 0.0625-0.25 0-0.25-0.203-0.359-0.344-0.359-0.234 0-0.312 0.172-0.375 0.359l-5.28 13.2c-0.0625 0.172-0.0625 0.219-0.0625 0.25 0 0.25 0.188 0.359 0.328 0.359 0.25 0 0.312-0.172 0.391-0.359z"/>
    </g>
    <g id="d">
      <path d="m1.28-10.6c-0.109 0-0.281 0-0.281 0.172 0 0.0625 0.0469 0.109 0.141 0.219 1.22 1.11 2.58 3.03 2.58 6.69 0 2.97-0.922 5.2-2.45 6.59-0.25 0.25-0.266 0.266-0.266 0.328 0 0.0781 0.0469 0.172 0.188 0.172 0.172 0 1.52-0.938 2.45-2.7 0.625-1.19 1.05-2.72 1.05-4.38 0-2-0.594-5.11-3.41-7.09z"/>
    </g>
    <g id="h">
      <path d="m4.75-9.02c0-0.391-0.0312-0.406-0.422-0.406-0.906 0.891-2.2 0.906-2.78 0.906v0.516c0.344 0 1.28 0 2.06-0.406v7.25c0 0.469 0 0.641-1.42 0.641h-0.547v0.516c0.266-0.0156 2-0.0625 2.53-0.0625 0.438 0 2.23 0.0469 2.53 0.0625v-0.516h-0.531c-1.42 0-1.42-0.172-1.42-0.641z"/>
    </g>
    <g id="cb">
      <path d="m5.03-5.12c1.11-0.531 1.83-1.2 1.83-2.19 0-1.38-1.44-2.11-2.81-2.11-1.56 0-2.84 1.02-2.84 2.38 0 0.656 0.312 1.14 0.578 1.42 0.25 0.297 0.344 0.359 1.19 0.859-0.797 0.344-2.2 1.11-2.2 2.59 0 1.58 1.62 2.45 3.25 2.45 1.8 0 3.28-1.14 3.28-2.67 0-0.938-0.562-1.73-1.38-2.22-0.188-0.109-0.688-0.406-0.891-0.516zm-2.31-1.34c-0.359-0.219-0.766-0.594-0.766-1.12 0-0.891 1.05-1.42 2.06-1.42 1.11 0 2.08 0.703 2.08 1.7 0 1.27-1.47 1.91-1.5 1.91s-0.0469-0.0156-0.156-0.0625zm0.703 1.97 1.94 1.12c0.375 0.219 1.08 0.641 1.08 1.47 0 1.06-1.17 1.73-2.39 1.73-1.31 0-2.42-0.828-2.42-2 0-1.05 0.766-1.86 1.8-2.33z"/>
    </g>
    <g id="i">
      <path d="m2.12-4.64c0-1.16 0.109-2.22 0.641-3.08 0.484-0.766 1.25-1.3 2.16-1.3 0.422 0 1 0.125 1.28 0.5-0.359 0.0312-0.656 0.266-0.656 0.688 0 0.344 0.234 0.656 0.672 0.656 0.422 0 0.672-0.281 0.672-0.688 0-0.828-0.594-1.56-2-1.56-2.03 0-4.12 1.88-4.12 4.92 0 3.67 1.73 4.78 3.3 4.78 1.72 0 3.23-1.31 3.23-3.17 0-1.81-1.44-3.14-3.09-3.14-1.14 0-1.77 0.75-2.08 1.39zm1.94 4.47c-0.719 0-1.27-0.406-1.56-1.03-0.219-0.422-0.328-1.14-0.328-1.98 0-1.38 0.828-2.44 1.95-2.44 0.656 0 1.09 0.25 1.45 0.766 0.344 0.547 0.359 1.14 0.359 1.97 0 0.812 0 1.41-0.391 1.95-0.344 0.5-0.797 0.766-1.48 0.766z"/>
    </g>
    <g id="ca">
      <path d="m7.5-2.33v-0.516h-1.56v-6.33c0-0.297 0-0.391-0.312-0.391-0.172 0-0.234 0-0.375 0.203l-4.7 6.52v0.516h4.17v1.17c0 0.469 0 0.641-1.14 0.641h-0.391v0.516c0.719-0.0312 1.62-0.0625 2.14-0.0625s1.42 0.0312 2.14 0.0625v-0.516h-0.391c-1.14 0-1.14-0.172-1.14-0.641v-1.17zm-2.67-5.7v5.19h-3.75z"/>
    </g>
    <g id="cc">
      <path d="m3.88-4.73c1.11 0 1.91 0.766 1.91 2.28 0 1.77-1.03 2.28-1.84 2.28-0.578 0-1.83-0.156-2.42-0.984 0.672-0.0312 0.828-0.5 0.828-0.797 0-0.453-0.344-0.781-0.781-0.781-0.406 0-0.797 0.234-0.797 0.812 0 1.34 1.47 2.2 3.19 2.2 1.98 0 3.34-1.31 3.34-2.73 0-1.11-0.906-2.22-2.47-2.55 1.48-0.531 2.03-1.59 2.03-2.47 0-1.11-1.3-1.95-2.88-1.95s-2.78 0.766-2.78 1.91c0 0.484 0.312 0.75 0.734 0.75 0.453 0 0.734-0.328 0.734-0.719 0-0.422-0.281-0.719-0.734-0.75 0.5-0.625 1.48-0.781 2-0.781 0.641 0 1.53 0.312 1.53 1.55 0 0.609-0.188 1.25-0.562 1.69-0.469 0.547-0.859 0.578-1.58 0.609-0.344 0.0312-0.375 0.0312-0.453 0.0469-0.0156 0-0.141 0.0312-0.141 0.188 0 0.203 0.125 0.203 0.375 0.203z"/>
    </g>
    <g id="bk">
      <path d="m18.5-123v123h121v-22.2h-96.1v-28.3h71.5v-22.2h-71.5v-28.3h96.1v-22.2z"/>
    </g>
    <g id="bj">
      <path d="m25.9 0v-19.4l15.8-14.2 26.9 33.6h18l-34.5-43 34.5-30.9h-21l-39.8 35.6v-35.6h-14.8v73.9z"/>
    </g>
    <g id="bi">
      <path d="m11.1 0h14.8v-30.3h38.4c13.3 0 22.2-8.72 22.2-21.4 0-13.3-8.88-22.2-22.2-22.2h-53.2zm14.8-60.6h38.4c4.44 0 7.41 2.95 7.41 7.39v2.22c0 4.44-2.97 7.39-7.41 7.39h-38.4z"/>
    </g>
    <g id="bh">
      <path d="m9.23 0h12.3v-42.5l38.2 42.5h11.1v-61.6h-12.3v42.5l-38.2-42.5h-11.1z"/>
    </g>
    <g id="bg">
      <path d="m4.92-61.6v11.1h24.7v50.5h12.3v-50.5h24.6v-11.1z"/>
    </g>
    <g id="bf">
      <path d="m9.23-61.6v61.6h12.3v-25.3h34.5v-11.1h-34.5v-14.2h46.8v-11.1z"/>
    </g>
    <g id="be">
      <path d="m7.39-49.3v49.3h24.6c14.8 0 25.6-10.5 25.6-24.6 0-14.3-10.8-24.7-25.6-24.7zm9.86 8.88h14.8c8.88 0 15.3 6.7 15.3 15.8 0 9.16-6.41 15.8-15.3 15.8h-14.8z"/>
    </g>
    <g id="bd">
      <path d="m7.39-49.3v49.3h48.3v-8.88h-38.5v-11.3h28.6v-8.88h-28.6v-11.3h38.5v-8.88z"/>
    </g>
    <g id="bc">
      <path d="m2.95-49.3 20.2 49.3h14.8l20.2-49.3h-10.4l-16.6 40.4h-0.984l-16.6-40.4z"/>
    </g>
    <g id="bb">
      <path d="m7.39 0h9.86v-20.2h25.6c8.88 0 14.8-5.83 14.8-14.3 0-8.88-5.92-14.8-14.8-14.8h-35.5zm9.86-40.4h25.6c2.97 0 4.94 1.97 4.94 4.94v1.47c0 2.97-1.97 4.94-4.94 4.94h-25.6z"/>
    </g>
    <g id="ba">
      <path d="m12.7 0v-14.9h21.8v14.9h7.27v-36.3h-7.27v14.9h-21.8v-14.9h-7.25v36.3z"/>
    </g>
    <g id="az">
      <path d="m22.5 0.719c9.78 0 17.2-6.38 18.6-15.6h-7.75c-1.23 5.14-5.44 8.7-10.9 8.7-6.53 0-11.2-5.08-11.2-12s4.72-12 11.2-12c5.44 0 9.64 3.55 10.9 8.7h7.75c-1.44-9.22-8.84-15.6-18.6-15.6-10.9 0-18.9 7.98-18.9 18.9s7.98 18.8 18.9 18.8z"/>
    </g>
    <g id="ay">
      <path d="m12.7 0v-9.5l7.77-6.97 13.2 16.5h8.86l-16.9-21.1 16.9-15.2h-10.3l-19.5 17.5v-17.5h-7.25v36.3z"/>
    </g>
    <g id="ax">
      <path d="m5.44-17.4c0 10.4 7.39 18.1 17.4 18.1 10 0 17.4-7.69 17.4-18.1v-18.9h-7.25v18.9c0 6.53-4.28 11.2-10.2 11.2s-10.2-4.72-10.2-11.2v-18.9h-7.25z"/>
    </g>
    <g id="aw">
      <path d="m5.44-36.3v36.3h29v-6.53h-21.8v-29.7z"/>
    </g>
    <g id="av">
      <path d="m3.62-24.2v24.2h12.1c7.25 0 12.6-5.12 12.6-12.1 0-7.02-5.31-12.1-12.6-12.1zm4.83 4.36h7.25c4.36 0 7.5 3.28 7.5 7.73 0 4.48-3.14 7.73-7.5 7.73h-7.25z"/>
    </g>
    <g id="au">
      <path d="m2.42-12.1c0 7.25 5.31 12.6 12.6 12.6s12.6-5.31 12.6-12.6-5.31-12.6-12.6-12.6-12.6 5.31-12.6 12.6zm5.06 0c0-4.59 3.14-7.98 7.5-7.98 4.34 0 7.48 3.39 7.48 7.98s-3.14 7.97-7.48 7.97c-4.36 0-7.5-3.38-7.5-7.97z"/>
    </g>
    <g id="at">
      <path d="m3.62 0h4.83v-9.91h12.6c4.36 0 7.25-2.86 7.25-7.02 0-4.34-2.89-7.25-7.25-7.25h-17.4zm4.83-19.8h12.6c1.45 0 2.42 0.969 2.42 2.42v0.719c0 1.45-0.969 2.42-2.42 2.42h-12.6z"/>
    </g>
    <g id="as">
      <path d="m3.62-24.2v24.2h23.7v-4.34h-18.9v-5.56h14v-4.34h-14v-5.56h18.9v-4.36z"/>
    </g>
    <g id="ar">
      <path d="m1.45-24.2 9.91 24.2h7.25l9.91-24.2h-5.12l-8.12 19.8h-0.484l-8.11-19.8z"/>
    </g>
    <g id="aq">
      <path d="m1.94-24.2v4.36h9.66v19.8h4.84v-19.8h9.66v-4.36z"/>
    </g>
    <g id="ap">
      <path d="m3.62-24.2v24.2h4.83v-9.91h13.5v-4.34h-13.5v-5.56h18.4v-4.36z"/>
    </g>
    <g id="ao">
      <path d="m8.45 0v-9.91h8.22l6.14 9.91h5.45l-5.45-8.8c-0.188-0.344-0.531-0.766-0.875-1.16 3.83-0.391 6.33-3.09 6.33-6.97 0-4.34-2.89-7.25-7.25-7.25h-17.4v24.2zm0-19.8h12.6c1.45 0 2.42 0.969 2.42 2.42v0.719c0 1.45-0.969 2.42-2.42 2.42h-12.6z"/>
    </g>
    <g id="an">
      <path d="m1.81-5.8c0 3.48 2.47 6.03 5.8 6.03s5.8-2.55 5.8-6.03v-6.28h-2.42v6.28c0 2.17-1.42 3.75-3.38 3.75s-3.38-1.58-3.38-3.75v-6.28h-2.42z"/>
    </g>
    <g id="aj">
      <path d="m1.81-12.1v12.1h11.8v-2.17h-9.41v-2.78h7v-2.17h-7v-2.78h9.41v-2.17z"/>
    </g>
    <g id="ai">
      <path d="m4.23 0v-3.17l2.58-2.31 4.39 5.48h2.95l-5.62-7.03 5.62-5.05h-3.44l-6.48 5.83v-5.83h-2.42v12.1z"/>
    </g>
    <g id="ah">
      <path d="m4.23 0v-4.95h4.09l3.08 4.95h2.72l-2.72-4.39c-0.0938-0.172-0.266-0.391-0.438-0.578 1.91-0.203 3.16-1.55 3.16-3.48 0-2.17-1.44-3.62-3.61-3.62h-8.7v12.1zm0-9.91h6.28c0.719 0 1.2 0.484 1.2 1.2v0.375c0 0.719-0.484 1.2-1.2 1.2h-6.28z"/>
    </g>
    <g id="ag">
      <path d="m7.48 0.234c3.27 0 5.73-2.12 6.22-5.19h-2.59c-0.406 1.72-1.81 2.91-3.62 2.91-2.17 0-3.73-1.7-3.73-4 0-2.28 1.56-3.98 3.73-3.98 1.81 0 3.22 1.19 3.62 2.91h2.59c-0.484-3.06-2.95-5.19-6.22-5.19-3.62 0-6.28 2.66-6.28 6.27 0 3.62 2.66 6.28 6.28 6.28z"/>
    </g>
    <g id="af">
      <path d="m0.969-12.1v2.17h4.83v9.91h2.42v-9.91h4.83v-2.17z"/>
    </g>
    <g id="ae">
      <path d="m4.23 0v-4.95h7.23v4.95h2.42v-12.1h-2.42v4.95h-7.23v-4.95h-2.42v12.1z"/>
    </g>
    <g id="ad">
      <path d="m1.81 0h2.42v-8.33l7.48 8.33h2.17v-12.1h-2.42v8.33l-7.48-8.33h-2.17z"/>
    </g>
    <g id="ac">
      <path d="m1.81-12.1v12.1h9.66v-2.17h-7.23v-9.91z"/>
    </g>
    <g id="am">
      <path d="m1.45 0h11.8v-2.17h-8.33l8.09-7.97v-1.94h-11.4v2.17h7.83l-8.06 7.97z"/>
    </g>
    <g id="al">
      <path d="m0.719-12.1 4.95 12.1h3.62l4.95-12.1h-2.56l-4.05 9.91h-0.25l-4.06-9.91z"/>
    </g>
    <g id="ak">
      <path d="m1.81-12.1v12.1h2.42v-4.95h6.75v-2.17h-6.75v-2.78h9.17v-2.17z"/>
    </g>
    <g id="ab">
      <path d="m3.53 0v-4.12h6.03v4.12h2.02v-10.1h-2.02v4.14h-6.03v-4.14h-2.02v10.1z"/>
    </g>
    <g id="v">
      <path d="m1.2 0h9.88v-1.81h-6.95l6.75-6.64v-1.62h-9.47v1.83h6.53l-6.73 6.64z"/>
    </g>
    <g id="u">
      <path d="m0.812-10.1v1.83h4.02v8.25h2.02v-8.25h4.03v-1.83z"/>
    </g>
    <g id="t">
      <path d="m3.53 0v-4.12h3.42l2.55 4.12h2.28l-2.28-3.67c-0.0781-0.141-0.219-0.312-0.359-0.484 1.59-0.156 2.64-1.28 2.64-2.89 0-1.81-1.2-3.03-3.02-3.03h-7.25v10.1zm0-8.25h5.23c0.594 0 1 0.391 1 1v0.297c0 0.609-0.406 1.02-1 1.02h-5.23z"/>
    </g>
    <g id="s">
      <path d="m1.52-4.83c0 2.89 2.05 5.03 4.83 5.03s4.83-2.14 4.83-5.03v-5.25h-2.02v5.25c0 1.81-1.19 3.11-2.81 3.11s-2.81-1.3-2.81-3.11v-5.25h-2.02z"/>
    </g>
    <g id="r">
      <path d="m1.52-10.1v10.1h5.03c3.02 0 5.23-2.14 5.23-5.03 0-2.92-2.22-5.05-5.23-5.05zm2.02 1.83h3.02c1.81 0 3.12 1.36 3.12 3.22 0 1.88-1.31 3.22-3.12 3.22h-3.02z"/>
    </g>
    <g id="q">
      <path d="m1.52 0h2.02v-4.12h5.23c1.81 0 3.02-1.19 3.02-2.92 0-1.81-1.2-3.03-3.02-3.03h-7.25zm2.02-8.25h5.23c0.594 0 1 0.391 1 1v0.297c0 0.609-0.406 1.02-1 1.02h-5.23z"/>
    </g>
    <g id="p">
      <path d="m1.52 0h2.02v-6.95l6.23 6.95h1.81v-10.1h-2.02v6.95l-6.23-6.95h-1.81z"/>
    </g>
    <g id="o">
      <path d="m1.52-10.1v10.1h9.86v-1.81h-7.84v-2.31h5.83v-1.81h-5.83v-2.31h7.84v-1.83z"/>
    </g>
    <g id="aa">
      <path d="m3.53 0v-2.64l2.14-1.94 3.67 4.58h2.45l-4.69-5.86 4.69-4.22h-2.86l-5.41 4.86v-4.86h-2.02v10.1z"/>
    </g>
    <g id="z">
      <path d="m1.52-10.1v10.1h8.05v-1.81h-6.03v-8.27z"/>
    </g>
    <g id="y">
      <path d="m6.25 0.203c2.72 0 4.77-1.78 5.17-4.33h-2.16c-0.344 1.42-1.52 2.41-3.02 2.41-1.81 0-3.12-1.41-3.12-3.31 0-1.92 1.31-3.33 3.12-3.33 1.5 0 2.67 0.984 3.02 2.42h2.16c-0.406-2.56-2.45-4.33-5.17-4.33-3.03 0-5.25 2.2-5.25 5.23 0 3.02 2.22 5.23 5.25 5.23z"/>
    </g>
    <g id="x">
      <path d="m0.609-10.1 4.12 10.1h3.02l4.14-10.1h-2.14l-3.39 8.27h-0.203l-3.38-8.27z"/>
    </g>
    <g id="w">
      <path d="m1-5.03c0 3.02 2.22 5.23 5.25 5.23 3.02 0 5.23-2.22 5.23-5.23 0-3.03-2.22-5.23-5.23-5.23-3.03 0-5.25 2.2-5.25 5.23zm2.12 0c0-1.92 1.31-3.33 3.12-3.33s3.11 1.41 3.11 3.33c0 1.91-1.3 3.31-3.11 3.31s-3.12-1.41-3.12-3.31z"/>
    </g>
    <g id="bz">
      <path d="m1.2-8.06v8.06h4.03c2.42 0 4.19-1.7 4.19-4.03s-1.77-4.03-4.19-4.03zm1.61 1.45h2.42c1.45 0 2.5 1.09 2.5 2.58 0 1.5-1.05 2.58-2.5 2.58h-2.42z"/>
    </g>
    <g id="bs">
      <path d="m1.2 0h1.61v-3.3h4.19c1.45 0 2.42-0.953 2.42-2.34 0-1.45-0.969-2.42-2.42-2.42h-5.8zm1.61-6.61h4.19c0.484 0 0.812 0.328 0.812 0.812v0.234c0 0.484-0.328 0.812-0.812 0.812h-4.19z"/>
    </g>
    <g id="br">
      <path d="m2.81 0v-3.3h4.84v3.3h1.61v-8.06h-1.61v3.31h-4.84v-3.31h-1.61v8.06z"/>
    </g>
    <g id="bq">
      <path d="m1.2-8.06v8.06h7.91v-1.45h-6.3v-1.84h4.67v-1.45h-4.67v-1.86h6.3v-1.45z"/>
    </g>
    <g id="bp">
      <path d="m5 0.156c2.17 0 3.81-1.41 4.14-3.45h-1.73c-0.266 1.14-1.2 1.92-2.41 1.92-1.45 0-2.5-1.12-2.5-2.66s1.05-2.66 2.5-2.66c1.2 0 2.14 0.797 2.41 1.94h1.73c-0.328-2.05-1.97-3.47-4.14-3.47-2.42 0-4.19 1.78-4.19 4.19 0 2.42 1.77 4.19 4.19 4.19z"/>
    </g>
    <g id="bo">
      <path d="m0.484-8.06 3.3 8.06h2.42l3.3-8.06h-1.7l-2.7 6.61h-0.172l-2.7-6.61z"/>
    </g>
    <g id="bn">
      <path d="m0.641-8.06v1.45h3.22v6.61h1.62v-6.61h3.22v-1.45z"/>
    </g>
    <g id="bm">
      <path d="m1.2 0h1.61v-5.56l5 5.56h1.45v-8.06h-1.61v5.56l-5-5.56h-1.45z"/>
    </g>
    <g id="bl">
      <path d="m0.812-4.03c0 2.42 1.77 4.19 4.19 4.19 2.41 0 4.19-1.77 4.19-4.19 0-2.41-1.78-4.19-4.19-4.19-2.42 0-4.19 1.78-4.19 4.19zm1.69 0c0-1.53 1.05-2.66 2.5-2.66 1.44 0 2.48 1.12 2.48 2.66s-1.05 2.66-2.48 2.66c-1.45 0-2.5-1.12-2.5-2.66z"/>
    </g>
    <g id="by">
      <path d="m2.81 0v-2.11l1.73-1.55 2.92 3.66h1.97l-3.75-4.69 3.75-3.38h-2.28l-4.34 3.89v-3.89h-1.61v8.06z"/>
    </g>
    <g id="bx">
      <path d="m2.81 0v-3.3h2.75l2.05 3.3h1.81l-1.81-2.94c-0.0625-0.109-0.188-0.25-0.297-0.375 1.28-0.141 2.11-1.03 2.11-2.33 0-1.45-0.969-2.42-2.42-2.42h-5.8v8.06zm0-6.61h4.19c0.484 0 0.812 0.328 0.812 0.812v0.234c0 0.484-0.328 0.812-0.812 0.812h-4.19z"/>
    </g>
    <g id="bw">
      <path d="m1.2-8.06v8.06h1.61v-3.3h4.52v-1.45h-4.52v-1.86h6.12v-1.45z"/>
    </g>
    <g id="bv">
      <path d="m0.969 0h7.89v-1.45h-5.56l5.41-5.31v-1.3h-7.58v1.45h5.22l-5.38 5.33z"/>
    </g>
    <g id="bu">
      <path d="m1.2-8.06v8.06h6.45v-1.45h-4.84v-6.61z"/>
    </g>
    <g id="bt">
      <path d="m1.2-3.86c0 2.31 1.64 4.02 3.88 4.02 2.22 0 3.86-1.7 3.86-4.02v-4.2h-1.61v4.2c0 1.44-0.953 2.48-2.25 2.48-1.31 0-2.27-1.05-2.27-2.48v-4.2h-1.61z"/>
    </g>
  </defs>
  <g>
    <use x="53.91848" y="106.3798" xlink:href="#c"/>
    <use x="64.054779" y="106.3798" xlink:href="#g"/>
    <use x="74.191078" y="106.3798" xlink:href="#c"/>
    <use x="84.327377" y="106.3798" xlink:href="#n"/>
  </g>
  <g fill="#999">
    <use x="97.232719" y="99.021706" xlink:href="#f"/>
    <use x="103.56749" y="99.021706" xlink:href="#b"/>
    <use x="111.64771" y="99.021706" xlink:href="#a"/>
    <use x="119.72794" y="99.021706" xlink:href="#e"/>
    <use x="127.80817" y="99.021706" xlink:href="#b"/>
    <use x="135.8884" y="99.021706" xlink:href="#a"/>
    <use x="143.96863" y="99.021706" xlink:href="#a"/>
    <use x="152.04886" y="99.021706" xlink:href="#d"/>
  </g>
  <g>
    <use x="287.69958" y="159.22536" xlink:href="#bk"/>
    <use x="53.91848" y="217.50993" xlink:href="#c"/>
    <use x="64.054779" y="217.50993" xlink:href="#g"/>
    <use x="74.191078" y="217.50993" xlink:href="#m"/>
    <use x="84.327377" y="217.50993" xlink:href="#c"/>
  </g>
  <g fill="#999">
    <use x="97.232719" y="210.15388" xlink:href="#f"/>
    <use x="103.56749" y="210.15388" xlink:href="#b"/>
    <use x="111.64771" y="210.15388" xlink:href="#a"/>
    <use x="119.72794" y="210.15388" xlink:href="#e"/>
    <use x="127.80817" y="210.15388" xlink:href="#h"/>
    <use x="135.8884" y="210.15388" xlink:href="#b"/>
    <use x="143.96863" y="210.15388" xlink:href="#a"/>
    <use x="152.04886" y="210.15388" xlink:href="#d"/>
  </g>
  <g>
    <use x="242.72997" y="245.71457" xlink:href="#bj"/>
    <use x="393.40634" y="245.71457" xlink:href="#bi"/>
    <use x="53.91848" y="297.83591" xlink:href="#c"/>
    <use x="64.054779" y="297.83591" xlink:href="#g"/>
    <use x="74.191078" y="297.83591" xlink:href="#m"/>
    <use x="84.327377" y="297.83591" xlink:href="#n"/>
  </g>
  <g fill="#999">
    <use x="97.232719" y="290.47781" xlink:href="#f"/>
    <use x="103.56749" y="290.47781" xlink:href="#b"/>
    <use x="111.64771" y="290.47781" xlink:href="#a"/>
    <use x="119.72794" y="290.47781" xlink:href="#e"/>
    <use x="127.80817" y="290.47781" xlink:href="#h"/>
    <use x="135.8884" y="290.47781" xlink:href="#a"/>
    <use x="143.96863" y="290.47781" xlink:href="#a"/>
    <use x="152.04886" y="290.47781" xlink:href="#d"/>
  </g>
  <g>
    <use x="202.36945" y="319.87158" xlink:href="#bh"/>
    <use x="331.75299" y="319.87158" xlink:href="#bg"/>
    <use x="452.51096" y="319.87158" xlink:href="#bf"/>
    <use x="61.999264" y="365.83917" xlink:href="#c"/>
    <use x="72.135567" y="365.83917" xlink:href="#g"/>
    <use x="82.271858" y="365.83917" xlink:href="#l"/>
    <use x="92.408157" y="365.83917" xlink:href="#k"/>
  </g>
  <g fill="#999">
    <use x="105.31351" y="358.48312" xlink:href="#f"/>
    <use x="111.64827" y="358.48312" xlink:href="#b"/>
    <use x="119.7285" y="358.48312" xlink:href="#a"/>
    <use x="127.80872" y="358.48312" xlink:href="#e"/>
    <use x="135.88896" y="358.48312" xlink:href="#cb"/>
    <use x="143.96918" y="358.48312" xlink:href="#a"/>
    <use x="152.04941" y="358.48312" xlink:href="#d"/>
  </g>
  <g>
    <use x="181.85794" y="381.71277" xlink:href="#be"/>
    <use x="283.78741" y="381.71277" xlink:href="#bd"/>
    <use x="384.82971" y="381.71277" xlink:href="#bc"/>
    <use x="485.37909" y="381.71277" xlink:href="#bb"/>
    <use x="61.999264" y="423.55887" xlink:href="#c"/>
    <use x="72.135567" y="423.55887" xlink:href="#g"/>
    <use x="82.271858" y="423.55887" xlink:href="#j"/>
    <use x="92.408157" y="423.55887" xlink:href="#ce"/>
  </g>
  <g fill="#999">
    <use x="105.31351" y="416.20282" xlink:href="#f"/>
    <use x="111.64827" y="416.20282" xlink:href="#b"/>
    <use x="119.7285" y="416.20282" xlink:href="#a"/>
    <use x="127.80872" y="416.20282" xlink:href="#e"/>
    <use x="135.88896" y="416.20282" xlink:href="#i"/>
    <use x="143.96918" y="416.20282" xlink:href="#a"/>
    <use x="152.04941" y="416.20282" xlink:href="#d"/>
  </g>
  <g>
    <use x="197.13307" y="433.28296" xlink:href="#ba"/>
    <use x="273.20346" y="433.28296" xlink:href="#az"/>
    <use x="346.95334" y="433.28296" xlink:href="#ay"/>
    <use x="420.19556" y="433.28296" xlink:href="#ax"/>
    <use x="494.88815" y="433.28296" xlink:href="#aw"/>
  </g>
  <path d="m171 475h387v-18.4h-387z" fill="#00adef"/>
  <g>
    <use x="61.999264" y="516.96912" xlink:href="#c"/>
    <use x="72.135567" y="516.96912" xlink:href="#g"/>
    <use x="82.271858" y="516.96912" xlink:href="#j"/>
    <use x="92.408157" y="516.96912" xlink:href="#l"/>
  </g>
  <g fill="#999">
    <use x="105.31351" y="509.61304" xlink:href="#f"/>
    <use x="111.64827" y="509.61304" xlink:href="#b"/>
    <use x="119.7285" y="509.61304" xlink:href="#a"/>
    <use x="127.80872" y="509.61304" xlink:href="#e"/>
    <use x="135.88896" y="509.61304" xlink:href="#ca"/>
    <use x="143.96918" y="509.61304" xlink:href="#a"/>
    <use x="152.04941" y="509.61304" xlink:href="#d"/>
  </g>
  <g>
    <use x="177.3329" y="522.84692" xlink:href="#av"/>
    <use x="227.35039" y="522.84692" xlink:href="#au"/>
    <use x="276.64301" y="522.84692" xlink:href="#at"/>
    <use x="326.41885" y="522.84692" xlink:href="#as"/>
    <use x="375.95309" y="522.84692" xlink:href="#ar"/>
    <use x="425.2457" y="522.84692" xlink:href="#aq"/>
    <use x="472.60526" y="522.84692" xlink:href="#ap"/>
    <use x="521.17297" y="522.84692" xlink:href="#ao"/>
    <use x="72.134705" y="564.69116" xlink:href="#c"/>
    <use x="82.271004" y="564.69116" xlink:href="#g"/>
    <use x="92.407303" y="564.69116" xlink:href="#c"/>
  </g>
  <g fill="#999">
    <use x="105.31326" y="557.33508" xlink:href="#f"/>
    <use x="111.64803" y="557.33508" xlink:href="#b"/>
    <use x="119.72826" y="557.33508" xlink:href="#a"/>
    <use x="127.80848" y="557.33508" xlink:href="#e"/>
    <use x="135.8887" y="557.33508" xlink:href="#b"/>
    <use x="143.96893" y="557.33508" xlink:href="#a"/>
    <use x="152.04916" y="557.33508" xlink:href="#d"/>
  </g>
  <g>
    <use x="223.2814" y="570.5683" xlink:href="#an"/>
    <use x="248.14511" y="570.5683" xlink:href="#aj"/>
    <use x="272.91217" y="570.5683" xlink:href="#ai"/>
    <use x="297.55844" y="570.5683" xlink:href="#ah"/>
    <use x="322.3255" y="570.5683" xlink:href="#ag"/>
    <use x="345.93274" y="570.5683" xlink:href="#af"/>
    <use x="369.63663" y="570.5683" xlink:href="#ae"/>
    <use x="395.00778" y="570.5683" xlink:href="#ad"/>
    <use x="420.37891" y="570.5683" xlink:href="#ac"/>
    <use x="442.48807" y="570.5683" xlink:href="#am"/>
    <use x="466.89267" y="570.5683" xlink:href="#al"/>
    <use x="491.53894" y="570.5683" xlink:href="#ak"/>
  </g>
  <path d="m171 612h387v-18.4h-387z" fill="#f00"/>
  <g>
    <use x="72.134705" y="654.25421" xlink:href="#c"/>
    <use x="82.271004" y="654.25421" xlink:href="#g"/>
    <use x="92.407303" y="654.25421" xlink:href="#cd"/>
  </g>
  <g fill="#999">
    <use x="105.31326" y="646.89819" xlink:href="#f"/>
    <use x="111.64803" y="646.89819" xlink:href="#b"/>
    <use x="119.72826" y="646.89819" xlink:href="#a"/>
    <use x="127.80848" y="646.89819" xlink:href="#e"/>
    <use x="135.8887" y="646.89819" xlink:href="#h"/>
    <use x="143.96893" y="646.89819" xlink:href="#i"/>
    <use x="152.04916" y="646.89819" xlink:href="#d"/>
  </g>
  <g>
    <use x="226.51694" y="660.13324" xlink:href="#ab"/>
    <use x="247.65944" y="660.13324" xlink:href="#v"/>
    <use x="267.99652" y="660.13324" xlink:href="#u"/>
    <use x="287.72949" y="660.13324" xlink:href="#t"/>
    <use x="308.56995" y="660.13324" xlink:href="#s"/>
    <use x="329.30975" y="660.13324" xlink:href="#r"/>
    <use x="350.15021" y="660.13324" xlink:href="#q"/>
    <use x="370.88998" y="660.13324" xlink:href="#p"/>
    <use x="392.03247" y="660.13324" xlink:href="#o"/>
    <use x="412.67157" y="660.13324" xlink:href="#aa"/>
    <use x="433.20999" y="660.13324" xlink:href="#z"/>
    <use x="451.03012" y="660.13324" xlink:href="#y"/>
    <use x="470.7027" y="660.13324" xlink:href="#x"/>
    <use x="490.4357" y="660.13324" xlink:href="#w"/>
    <use x="72.134705" y="701.97528" xlink:href="#c"/>
    <use x="82.271004" y="701.97528" xlink:href="#g"/>
    <use x="92.407303" y="701.97528" xlink:href="#k"/>
  </g>
  <g fill="#999">
    <use x="105.31326" y="694.6192" xlink:href="#f"/>
    <use x="111.64803" y="694.6192" xlink:href="#b"/>
    <use x="119.72826" y="694.6192" xlink:href="#a"/>
    <use x="127.80848" y="694.6192" xlink:href="#e"/>
    <use x="135.8887" y="694.6192" xlink:href="#h"/>
    <use x="143.96893" y="694.6192" xlink:href="#cc"/>
    <use x="152.04916" y="694.6192" xlink:href="#d"/>
  </g>
  <g>
    <use x="245.9039" y="707.85364" xlink:href="#bz"/>
    <use x="262.55991" y="707.85364" xlink:href="#bs"/>
    <use x="279.15149" y="707.85364" xlink:href="#br"/>
    <use x="296.06525" y="707.85364" xlink:href="#bq"/>
    <use x="312.17355" y="707.85364" xlink:href="#bp"/>
    <use x="327.91141" y="707.85364" xlink:href="#bo"/>
    <use x="344.34189" y="707.85364" xlink:href="#bn"/>
    <use x="360.12805" y="707.85364" xlink:href="#bm"/>
    <use x="377.04181" y="707.85364" xlink:href="#bl"/>
    <use x="393.47229" y="707.85364" xlink:href="#by"/>
    <use x="409.9028" y="707.85364" xlink:href="#bx"/>
    <use x="426.65546" y="707.85364" xlink:href="#bw"/>
    <use x="442.84433" y="707.85364" xlink:href="#bv"/>
    <use x="459.11374" y="707.85364" xlink:href="#bu"/>
    <use x="473.3696" y="707.85364" xlink:href="#bt"/>
  </g>
</svg>
