<?xml version="1.0" encoding="UTF-8" standalone="no"?>
<svg
   width="275pt"
   height="125pt"
   viewBox="0 0 275.00001 125"
   version="1.1"
   id="svg5917"
   sodipodi:docname="repo.svg"
   inkscape:version="1.2.1 (9c6d41e, 2022-07-14)"
   xmlns:inkscape="http://www.inkscape.org/namespaces/inkscape"
   xmlns:sodipodi="http://sodipodi.sourceforge.net/DTD/sodipodi-0.dtd"
   xmlns="http://www.w3.org/2000/svg"
   xmlns:svg="http://www.w3.org/2000/svg"
   xmlns:rdf="http://www.w3.org/1999/02/22-rdf-syntax-ns#"
   xmlns:cc="http://creativecommons.org/ns#"
   xmlns:dc="http://purl.org/dc/elements/1.1/">
  <sodipodi:namedview
     id="namedview5919"
     pagecolor="#ffffff"
     bordercolor="#000000"
     borderopacity="0.25"
     inkscape:showpageshadow="2"
     inkscape:pageopacity="0.0"
     inkscape:pagecheckerboard="0"
     inkscape:deskcolor="#d1d1d1"
     inkscape:document-units="pt"
     showgrid="false"
     inkscape:zoom="1.7792574"
     inkscape:cx="64.914721"
     inkscape:cy="71.659108"
     inkscape:window-width="1916"
     inkscape:window-height="1036"
     inkscape:window-x="0"
     inkscape:window-y="42"
     inkscape:window-maximized="1"
     inkscape:current-layer="svg5917" />
  <metadata
     id="metadata5859">
    <rdf:RDF>
      <cc:Work>
        <dc:type
           rdf:resource="http://purl.org/dc/dcmitype/StillImage" />
        <dc:date>2023-06-04T16:36:56.486852</dc:date>
        <dc:format>image/svg+xml</dc:format>
        <dc:creator>
          <cc:Agent>
            <dc:title>Matplotlib v3.5.1, https://matplotlib.org/</dc:title>
          </cc:Agent>
        </dc:creator>
      </cc:Work>
    </rdf:RDF>
  </metadata>
  <defs
     id="defs5863">
    <style
       type="text/css"
       id="style5861">*{stroke-linejoin: round; stroke-linecap: butt}</style>
  </defs>
  <rect
     style="fill:#ffffff;fill-opacity:1;stroke-width:0.5"
     id="rect6503"
     width="275"
     height="125"
     x="-7.327472e-15"
     y="-6.2172489e-15" />
  <g
     id="axes_1"
     transform="matrix(1.3682137,0,0,1.3682137,0.67862898,-16.241028)"
     style="stroke-width:0.73088">
    <g
       id="line2d_1"
       style="stroke-width:0.73088">
      <path
         d="m 8.251816,61.98354 8.950645,0.291453 6.312322,0.428591 4.984573,0.553211 4.549134,0.717651 5.022201,1.018722 6.417206,1.314223 2.298218,0.266597 1.840834,0.02801 1.842769,-0.212483 1.383304,-0.364508 1.384324,-0.578426 1.385314,-0.824697 1.386275,-1.097916 1.387207,-1.388192 1.388109,-1.680195 1.852165,-2.656375 2.317282,-3.79232 2.783602,-4.545104 1.392905,-1.867736 0.928992,-0.9483 0.929292,-0.629415 0.929584,-0.241739 0.464899,0.04469 0.464968,0.164752 0.465037,0.291145 0.930276,0.981799 0.930537,1.535966 0.930789,2.094662 0.931033,2.628934 1.396988,4.809108 2.329406,9.352554 1.864432,7.116544 0.932494,2.850835 0.932667,2.089116 0.466396,0.697924 0.466436,0.439131 0.466475,0.163608 0.466513,-0.124718 0.46655,-0.421407 0.466586,-0.721548 0.46662,-1.019844 0.93334,-2.899055 0.933465,-3.927564 1.400413,-7.314147 2.801494,-15.471751 0.933997,-3.945922 0.934065,-2.725614 0.467055,-0.819831 0.467069,-0.426014 0.467082,-0.01827 0.467093,0.394789 0.467104,0.804203 0.467113,1.200927 0.93425,3.497051 0.934274,4.717284 1.401437,8.500173 1.868584,11.478846 0.93427,4.717284 0.93426,3.497051 0.46711,1.200927 0.4671,0.804203 0.46709,0.394789 0.46709,-0.01826 0.46707,-0.426015 0.46705,-0.819831 0.46704,-1.191619 0.93403,-3.374442 0.93396,-4.430144 1.86767,-10.48569 1.40049,-7.691622 0.93353,-4.364557 0.9334,-3.435272 0.93328,-2.330551 0.46658,-0.721548 0.46655,-0.421406 0.46651,-0.124719 0.46648,0.163609 0.46644,0.43913 0.46639,0.697925 0.93267,2.089115 0.93249,2.850835 1.3984,5.230142 3.26116,12.942558 1.39681,4.483973 0.93092,2.366844 0.93066,1.816442 0.93041,1.256705 0.93014,0.714048 0.46497,0.164752 0.4649,0.04469 0.92958,-0.24174 0.92929,-0.629415 0.92899,-0.9483 1.39291,-1.867736 1.85607,-2.977366 3.708,-6.064022 1.85178,-2.544213 1.38781,-1.583864 1.3869,-1.290363 1.38596,-1.004356 1.38499,-0.739263 1.38398,-0.503367 1.38296,-0.300809 1.84229,-0.1452 1.84034,0.07667 2.29758,0.30536 3.66921,0.735027 7.76658,1.604603 4.5475,0.696122 4.98265,0.532865 5.86024,0.38896 7.61335,0.26311 1.33729,0.02834 v 0"
         clip-path="url(#p717472ede8)"
         style="fill:none;stroke:#ffffff;stroke-width:2.00992;stroke-linecap:square"
         id="path5868" />
    </g>
    <g
       id="line2d_2"
       style="stroke-width:0.73088">
      <path
         d="m 8.251816,61.98354 8.950645,0.291453 6.312322,0.428591 4.984573,0.553211 4.549134,0.717651 5.022201,1.018722 6.417206,1.314223 2.298218,0.266597 1.840834,0.02801 1.842769,-0.212483 1.383304,-0.364508 1.384324,-0.578426 1.385314,-0.824697 1.386275,-1.097916 1.387207,-1.388192 1.388109,-1.680195 1.852165,-2.656375 2.317282,-3.79232 2.783602,-4.545104 1.392905,-1.867736 0.928992,-0.9483 0.929292,-0.629415 0.929584,-0.241739 0.464899,0.04469 0.464968,0.164752 0.465037,0.291145 0.930276,0.981799 0.930537,1.535966 0.930789,2.094662 0.931033,2.628934 1.396988,4.809108 2.329406,9.352554 1.864432,7.116544 0.932494,2.850835 0.932667,2.089116 0.466396,0.697924 0.466436,0.439131 0.466475,0.163608 0.466513,-0.124718 0.46655,-0.421407 0.466586,-0.721548 0.46662,-1.019844 0.93334,-2.899055 0.933465,-3.927564 1.400413,-7.314147 2.801494,-15.471751 0.933997,-3.945922 0.934065,-2.725614 0.467055,-0.819831 0.467069,-0.426014 0.467082,-0.01827 0.467093,0.394789 0.467104,0.804203 0.467113,1.200927 0.93425,3.497051 0.934274,4.717284 1.401437,8.500173 1.868584,11.478846 0.93427,4.717284 0.93426,3.497051 0.46711,1.200927 0.4671,0.804203 0.46709,0.394789 0.46709,-0.01826 0.46707,-0.426015 0.46705,-0.819831 0.46704,-1.191619 0.93403,-3.374442 0.93396,-4.430144 1.86767,-10.48569 1.40049,-7.691622 0.93353,-4.364557 0.9334,-3.435272 0.93328,-2.330551 0.46658,-0.721548 0.46655,-0.421406 0.46651,-0.124719 0.46648,0.163609 0.46644,0.43913 0.46639,0.697925 0.93267,2.089115 0.93249,2.850835 1.3984,5.230142 3.26116,12.942558 1.39681,4.483973 0.93092,2.366844 0.93066,1.816442 0.93041,1.256705 0.93014,0.714048 0.46497,0.164752 0.4649,0.04469 0.92958,-0.24174 0.92929,-0.629415 0.92899,-0.9483 1.39291,-1.867736 1.85607,-2.977366 3.708,-6.064022 1.85178,-2.544213 1.38781,-1.583864 1.3869,-1.290363 1.38596,-1.004356 1.38499,-0.739263 1.38398,-0.503367 1.38296,-0.300809 1.84229,-0.1452 1.84034,0.07667 2.29758,0.30536 3.66921,0.735027 7.76658,1.604603 4.5475,0.696122 4.98265,0.532865 5.86024,0.38896 7.61335,0.26311 1.33729,0.02834 v 0"
         clip-path="url(#p717472ede8)"
         style="fill:none;stroke:#d62728;stroke-width:0.73088;stroke-linecap:square;stroke-opacity:0"
         id="path5871" />
    </g>
    <g
       id="line2d_3"
       style="stroke-width:0.73088">
      <path
         d="m 8.251816,61.831474 13.455719,0.160085 6.791821,0.282724 5.004931,0.424926 4.109091,0.578373 3.662531,0.753725 3.671375,1.010235 5.061565,1.687317 3.228497,0.9675 1.847301,0.340413 1.386589,0.07199 1.38751,-0.146666 1.388404,-0.425952 1.389266,-0.766782 0.926642,-0.72899 1.39064,-1.455139 1.391423,-1.914476 1.392179,-2.37391 1.392905,-2.790808 2.32304,-5.284095 2.324837,-5.285165 1.395708,-2.62228 0.930789,-1.304143 0.931033,-0.821843 0.465605,-0.197237 0.465663,-0.03859 0.46572,0.13092 0.465774,0.309945 0.46583,0.496845 0.931817,1.575998 0.932021,2.364777 0.932217,3.129726 0.932404,3.820903 1.398936,6.73353 3.265576,16.519037 0.93334,3.667775 0.933465,2.668173 0.466776,0.881771 0.466805,0.546535 0.466832,0.192115 0.466857,-0.175804 0.466883,-0.550963 0.466905,-0.926636 0.466929,-1.295757 0.93392,-3.636391 0.933997,-4.85363 1.40112,-8.871672 2.335461,-15.469033 0.93425,-5.064845 0.934274,-3.790249 0.467143,-1.317187 0.467146,-0.893407 0.467148,-0.451334 h 0.467144 l 0.46715,0.451334 0.46715,0.893407 0.46714,1.317187 0.93427,3.790249 0.93426,5.064845 1.4013,9.091708 2.33528,15.248997 0.93399,4.85363 0.93392,3.636391 0.46693,1.295757 0.46691,0.926636 0.46688,0.550963 0.46686,0.175804 0.46683,-0.192115 0.4668,-0.546535 0.46678,-0.881771 0.93346,-2.668173 0.93334,-3.667775 1.39976,-6.750469 3.26476,-16.502098 0.9324,-3.820903 0.93222,-3.129726 0.93202,-2.364777 0.93182,-1.575998 0.46583,-0.496845 0.46577,-0.309945 0.46572,-0.13092 0.46566,0.03859 0.46561,0.197237 0.93103,0.821843 0.93079,1.304143 0.93054,1.677444 1.39531,2.982002 4.64642,10.435384 1.39242,2.520072 1.39168,2.069454 1.3909,1.606128 1.3901,1.164379 1.38927,0.766782 1.3884,0.425952 1.38751,0.146666 1.38659,-0.07199 1.8473,-0.340413 2.76763,-0.813871 7.81805,-2.502218 3.66591,-0.849204 3.65673,-0.605717 4.10214,-0.450574 4.99586,-0.323086 7.22882,-0.219044 10.75039,-0.101171 v 0"
         clip-path="url(#p717472ede8)"
         style="fill:none;stroke:#ffffff;stroke-width:2.00992;stroke-linecap:square"
         id="path5874" />
    </g>
    <g
       id="line2d_4"
       style="stroke-width:0.73088">
      <path
         d="m 8.251816,61.831474 13.455719,0.160085 6.791821,0.282724 5.004931,0.424926 4.109091,0.578373 3.662531,0.753725 3.671375,1.010235 5.061565,1.687317 3.228497,0.9675 1.847301,0.340413 1.386589,0.07199 1.38751,-0.146666 1.388404,-0.425952 1.389266,-0.766782 0.926642,-0.72899 1.39064,-1.455139 1.391423,-1.914476 1.392179,-2.37391 1.392905,-2.790808 2.32304,-5.284095 2.324837,-5.285165 1.395708,-2.62228 0.930789,-1.304143 0.931033,-0.821843 0.465605,-0.197237 0.465663,-0.03859 0.46572,0.13092 0.465774,0.309945 0.46583,0.496845 0.931817,1.575998 0.932021,2.364777 0.932217,3.129726 0.932404,3.820903 1.398936,6.73353 3.265576,16.519037 0.93334,3.667775 0.933465,2.668173 0.466776,0.881771 0.466805,0.546535 0.466832,0.192115 0.466857,-0.175804 0.466883,-0.550963 0.466905,-0.926636 0.466929,-1.295757 0.93392,-3.636391 0.933997,-4.85363 1.40112,-8.871672 2.335461,-15.469033 0.93425,-5.064845 0.934274,-3.790249 0.467143,-1.317187 0.467146,-0.893407 0.467148,-0.451334 h 0.467144 l 0.46715,0.451334 0.46715,0.893407 0.46714,1.317187 0.93427,3.790249 0.93426,5.064845 1.4013,9.091708 2.33528,15.248997 0.93399,4.85363 0.93392,3.636391 0.46693,1.295757 0.46691,0.926636 0.46688,0.550963 0.46686,0.175804 0.46683,-0.192115 0.4668,-0.546535 0.46678,-0.881771 0.93346,-2.668173 0.93334,-3.667775 1.39976,-6.750469 3.26476,-16.502098 0.9324,-3.820903 0.93222,-3.129726 0.93202,-2.364777 0.93182,-1.575998 0.46583,-0.496845 0.46577,-0.309945 0.46572,-0.13092 0.46566,0.03859 0.46561,0.197237 0.93103,0.821843 0.93079,1.304143 0.93054,1.677444 1.39531,2.982002 4.64642,10.435384 1.39242,2.520072 1.39168,2.069454 1.3909,1.606128 1.3901,1.164379 1.38927,0.766782 1.3884,0.425952 1.38751,0.146666 1.38659,-0.07199 1.8473,-0.340413 2.76763,-0.813871 7.81805,-2.502218 3.66591,-0.849204 3.65673,-0.605717 4.10214,-0.450574 4.99586,-0.323086 7.22882,-0.219044 10.75039,-0.101171 v 0"
         clip-path="url(#p717472ede8)"
         style="fill:none;stroke:#d62728;stroke-width:0.73088;stroke-linecap:square;stroke-opacity:0.166667"
         id="path5877" />
    </g>
    <g
       id="line2d_5"
       style="stroke-width:0.73088">
      <path
         d="m 8.251816,61.806594 21.156055,0.122003 6.83445,0.258052 4.575276,0.398058 3.211044,0.47532 3.217497,0.712639 2.762711,0.848441 2.766944,1.087448 3.695443,1.742779 3.238908,1.502609 1.852914,0.618904 1.39064,0.223882 0.92753,-0.01348 0.927871,-0.176853 0.928201,-0.369728 0.928525,-0.591777 0.928838,-0.841144 0.929143,-1.114078 0.929439,-1.404595 0.929727,-1.704179 1.39511,-3.109433 1.395708,-3.705753 2.327427,-7.020708 1.862987,-5.558161 1.397802,-3.469916 0.932121,-1.701565 0.466132,-0.610294 0.466179,-0.425807 0.466225,-0.224528 0.466269,-0.008 0.466312,0.221925 0.466355,0.462869 0.466396,0.712145 0.466436,0.96667 0.932988,2.700433 0.933136,3.690067 0.933274,4.580713 1.400151,8.152565 3.267987,20.056835 0.93392,4.447058 0.933997,3.252796 0.467024,1.092946 0.467041,0.701748 0.467055,0.291498 0.467069,-0.13096 0.467082,-0.558328 0.467093,-0.982985 0.467104,-1.397162 0.934234,-3.956404 0.934263,-5.298697 1.401429,-9.701363 2.802872,-20.196728 0.93426,-5.298697 0.93424,-3.956404 0.4671,-1.397162 0.46709,-0.982985 0.46709,-0.558327 0.46707,-0.130961 0.46705,0.291499 0.46704,0.701747 0.46703,1.092946 0.93399,3.252796 0.93392,4.447058 1.40072,8.188473 3.26742,20.020927 0.93328,4.580713 0.93313,3.690067 0.93299,2.700434 0.93283,1.678814 0.46636,0.462869 0.46631,0.221926 0.46627,-0.008 0.46622,-0.224528 0.46618,-0.425807 0.93222,-1.387145 0.93202,-1.978172 1.39765,-3.741836 5.12029,-14.959244 1.39511,-3.109432 1.39448,-2.443589 0.92929,-1.257609 0.92899,-0.974983 0.92869,-0.713232 0.92836,-0.477182 0.92804,-0.269591 0.9277,-0.09151 1.3909,0.1331 1.3901,0.376176 1.85217,0.741984 8.7754,3.936221 2.76271,0.84844 2.75824,0.626997 3.21199,0.504955 4.1197,0.394239 5.47416,0.260337 8.61935,0.140157 14.81088,0.03939 v 0"
         clip-path="url(#p717472ede8)"
         style="fill:none;stroke:#ffffff;stroke-width:2.00992;stroke-linecap:square"
         id="path5880" />
    </g>
    <g
       id="line2d_6"
       style="stroke-width:0.73088">
      <path
         d="m 8.251816,61.806594 21.156055,0.122003 6.83445,0.258052 4.575276,0.398058 3.211044,0.47532 3.217497,0.712639 2.762711,0.848441 2.766944,1.087448 3.695443,1.742779 3.238908,1.502609 1.852914,0.618904 1.39064,0.223882 0.92753,-0.01348 0.927871,-0.176853 0.928201,-0.369728 0.928525,-0.591777 0.928838,-0.841144 0.929143,-1.114078 0.929439,-1.404595 0.929727,-1.704179 1.39511,-3.109433 1.395708,-3.705753 2.327427,-7.020708 1.862987,-5.558161 1.397802,-3.469916 0.932121,-1.701565 0.466132,-0.610294 0.466179,-0.425807 0.466225,-0.224528 0.466269,-0.008 0.466312,0.221925 0.466355,0.462869 0.466396,0.712145 0.466436,0.96667 0.932988,2.700433 0.933136,3.690067 0.933274,4.580713 1.400151,8.152565 3.267987,20.056835 0.93392,4.447058 0.933997,3.252796 0.467024,1.092946 0.467041,0.701748 0.467055,0.291498 0.467069,-0.13096 0.467082,-0.558328 0.467093,-0.982985 0.467104,-1.397162 0.934234,-3.956404 0.934263,-5.298697 1.401429,-9.701363 2.802872,-20.196728 0.93426,-5.298697 0.93424,-3.956404 0.4671,-1.397162 0.46709,-0.982985 0.46709,-0.558327 0.46707,-0.130961 0.46705,0.291499 0.46704,0.701747 0.46703,1.092946 0.93399,3.252796 0.93392,4.447058 1.40072,8.188473 3.26742,20.020927 0.93328,4.580713 0.93313,3.690067 0.93299,2.700434 0.93283,1.678814 0.46636,0.462869 0.46631,0.221926 0.46627,-0.008 0.46622,-0.224528 0.46618,-0.425807 0.93222,-1.387145 0.93202,-1.978172 1.39765,-3.741836 5.12029,-14.959244 1.39511,-3.109432 1.39448,-2.443589 0.92929,-1.257609 0.92899,-0.974983 0.92869,-0.713232 0.92836,-0.477182 0.92804,-0.269591 0.9277,-0.09151 1.3909,0.1331 1.3901,0.376176 1.85217,0.741984 8.7754,3.936221 2.76271,0.84844 2.75824,0.626997 3.21199,0.504955 4.1197,0.394239 5.47416,0.260337 8.61935,0.140157 14.81088,0.03939 v 0"
         clip-path="url(#p717472ede8)"
         style="fill:none;stroke:#d62728;stroke-width:0.73088;stroke-linecap:square;stroke-opacity:0.333333"
         id="path5883" />
    </g>
    <g
       id="line2d_7"
       style="stroke-width:0.73088">
      <path
         d="m 8.251816,61.803703 29.361562,0.112837 5.956139,0.23862 4.136769,0.391927 3.224419,0.54911 2.768304,0.729293 2.309926,0.84578 2.312515,1.095639 2.314966,1.344401 6.958247,4.325514 1.393826,0.413977 0.929584,0.05746 0.929867,-0.166674 0.930142,-0.434412 0.930407,-0.744706 0.930664,-1.093856 0.930913,-1.474966 0.931151,-1.877468 0.931383,-2.28681 1.397486,-4.165855 1.397956,-4.916748 4.662864,-17.254934 0.933063,-2.411461 0.933206,-1.628707 0.466654,-0.465746 0.466686,-0.207403 0.466717,0.06741 0.466748,0.355761 0.466776,0.654251 0.466805,0.959078 0.933689,2.836842 0.933788,4.022599 0.933879,5.093203 1.400967,9.204539 3.736581,26.21275 0.93425,4.950436 0.934274,3.63904 0.467143,1.252909 0.467146,0.846575 0.467148,0.426707 h 0.467144 l 0.46715,-0.426707 0.46715,-0.846575 0.46714,-1.252908 0.93427,-3.639041 0.93426,-4.950436 1.4013,-9.20361 3.73624,-26.213679 0.93388,-5.093203 0.93379,-4.022598 0.93369,-2.836843 0.4668,-0.959078 0.46678,-0.654251 0.46675,-0.355761 0.46671,-0.06741 0.46669,0.207403 0.46665,0.465746 0.46663,0.705135 0.93313,2.043097 0.93299,2.732118 1.39919,4.967648 4.19515,15.763852 1.39749,4.165854 0.93138,2.286811 0.93115,1.877468 0.93092,1.474966 0.93066,1.093856 0.93041,0.744706 0.93014,0.434412 0.92987,0.166674 0.92958,-0.05746 0.92929,-0.239016 1.39337,-0.612417 1.85673,-1.110665 6.02485,-3.871906 2.31301,-1.146975 2.31046,-0.893955 2.30776,-0.667231 2.76556,-0.559263 3.22101,-0.410343 4.13209,-0.28611 5.94876,-0.170436 12.27082,-0.07246 15.26296,-0.0063 v 0"
         clip-path="url(#p717472ede8)"
         style="fill:none;stroke:#ffffff;stroke-width:2.00992;stroke-linecap:square"
         id="path5886" />
    </g>
    <g
       id="line2d_8"
       style="stroke-width:0.73088">
      <path
         d="m 8.251816,61.803703 29.361562,0.112837 5.956139,0.23862 4.136769,0.391927 3.224419,0.54911 2.768304,0.729293 2.309926,0.84578 2.312515,1.095639 2.314966,1.344401 6.958247,4.325514 1.393826,0.413977 0.929584,0.05746 0.929867,-0.166674 0.930142,-0.434412 0.930407,-0.744706 0.930664,-1.093856 0.930913,-1.474966 0.931151,-1.877468 0.931383,-2.28681 1.397486,-4.165855 1.397956,-4.916748 4.662864,-17.254934 0.933063,-2.411461 0.933206,-1.628707 0.466654,-0.465746 0.466686,-0.207403 0.466717,0.06741 0.466748,0.355761 0.466776,0.654251 0.466805,0.959078 0.933689,2.836842 0.933788,4.022599 0.933879,5.093203 1.400967,9.204539 3.736581,26.21275 0.93425,4.950436 0.934274,3.63904 0.467143,1.252909 0.467146,0.846575 0.467148,0.426707 h 0.467144 l 0.46715,-0.426707 0.46715,-0.846575 0.46714,-1.252908 0.93427,-3.639041 0.93426,-4.950436 1.4013,-9.20361 3.73624,-26.213679 0.93388,-5.093203 0.93379,-4.022598 0.93369,-2.836843 0.4668,-0.959078 0.46678,-0.654251 0.46675,-0.355761 0.46671,-0.06741 0.46669,0.207403 0.46665,0.465746 0.46663,0.705135 0.93313,2.043097 0.93299,2.732118 1.39919,4.967648 4.19515,15.763852 1.39749,4.165854 0.93138,2.286811 0.93115,1.877468 0.93092,1.474966 0.93066,1.093856 0.93041,0.744706 0.93014,0.434412 0.92987,0.166674 0.92958,-0.05746 0.92929,-0.239016 1.39337,-0.612417 1.85673,-1.110665 6.02485,-3.871906 2.31301,-1.146975 2.31046,-0.893955 2.30776,-0.667231 2.76556,-0.559263 3.22101,-0.410343 4.13209,-0.28611 5.94876,-0.170436 12.27082,-0.07246 15.26296,-0.0063 v 0"
         clip-path="url(#p717472ede8)"
         style="fill:none;stroke:#d62728;stroke-width:0.73088;stroke-linecap:square;stroke-opacity:0.5"
         id="path5889" />
    </g>
    <g
       id="line2d_9"
       style="stroke-width:0.73088">
      <path
         d="m 8.251816,61.80346 36.695468,0.107721 5.522434,0.246685 3.229291,0.332214 2.772227,0.493001 2.313015,0.63179 1.852165,0.698425 1.853646,0.907406 1.855059,1.142773 1.856402,1.384725 2.322283,2.020559 4.184683,3.722107 1.39609,0.880284 0.931033,0.355117 0.931268,0.104414 0.931494,-0.205471 0.931712,-0.574527 0.93192,-0.99933 0.932121,-1.472314 0.932311,-1.981195 0.932494,-2.508595 0.932667,-3.032006 1.399307,-5.452616 1.866269,-8.542956 2.800386,-13.252417 1.400572,-5.408931 0.933834,-2.663427 0.46695,-0.973226 0.46697,-0.704577 0.466989,-0.416768 0.467008,-0.112803 0.467024,0.203903 0.467041,0.529573 0.467055,0.860115 0.467069,1.191192 0.934175,3.355109 0.934217,4.571896 0.93425,5.629894 1.401417,9.924456 3.737148,27.940009 0.93426,5.629895 0.93421,4.571895 0.93418,3.355109 0.46707,1.191192 0.46705,0.860115 0.46704,0.529573 0.46703,0.203903 0.467,-0.112803 0.46699,-0.416768 0.46697,-0.704577 0.93388,-2.193381 0.93379,-3.084225 1.40049,-5.840277 5.13277,-23.471992 1.39906,-4.735704 0.93249,-2.508595 0.93231,-1.981195 0.93212,-1.472314 0.93192,-0.99933 0.93172,-0.574527 0.93149,-0.205471 0.93127,0.104414 0.93103,0.355117 1.39609,0.880285 1.86055,1.565048 5.11064,4.545657 1.85607,1.325282 1.85471,1.082294 1.85329,0.852208 2.31448,0.787031 2.31201,0.542042 2.77095,0.417727 3.68833,0.305387 5.05882,0.176882 10.0684,0.07916 25.70842,0.0087 v 0"
         clip-path="url(#p717472ede8)"
         style="fill:none;stroke:#ffffff;stroke-width:2.00992;stroke-linecap:square"
         id="path5892" />
    </g>
    <g
       id="line2d_10"
       style="stroke-width:0.73088">
      <path
         d="m 8.251816,61.80346 36.695468,0.107721 5.522434,0.246685 3.229291,0.332214 2.772227,0.493001 2.313015,0.63179 1.852165,0.698425 1.853646,0.907406 1.855059,1.142773 1.856402,1.384725 2.322283,2.020559 4.184683,3.722107 1.39609,0.880284 0.931033,0.355117 0.931268,0.104414 0.931494,-0.205471 0.931712,-0.574527 0.93192,-0.99933 0.932121,-1.472314 0.932311,-1.981195 0.932494,-2.508595 0.932667,-3.032006 1.399307,-5.452616 1.866269,-8.542956 2.800386,-13.252417 1.400572,-5.408931 0.933834,-2.663427 0.46695,-0.973226 0.46697,-0.704577 0.466989,-0.416768 0.467008,-0.112803 0.467024,0.203903 0.467041,0.529573 0.467055,0.860115 0.467069,1.191192 0.934175,3.355109 0.934217,4.571896 0.93425,5.629894 1.401417,9.924456 3.737148,27.940009 0.93426,5.629895 0.93421,4.571895 0.93418,3.355109 0.46707,1.191192 0.46705,0.860115 0.46704,0.529573 0.46703,0.203903 0.467,-0.112803 0.46699,-0.416768 0.46697,-0.704577 0.93388,-2.193381 0.93379,-3.084225 1.40049,-5.840277 5.13277,-23.471992 1.39906,-4.735704 0.93249,-2.508595 0.93231,-1.981195 0.93212,-1.472314 0.93192,-0.99933 0.93172,-0.574527 0.93149,-0.205471 0.93127,0.104414 0.93103,0.355117 1.39609,0.880285 1.86055,1.565048 5.11064,4.545657 1.85607,1.325282 1.85471,1.082294 1.85329,0.852208 2.31448,0.787031 2.31201,0.542042 2.77095,0.417727 3.68833,0.305387 5.05882,0.176882 10.0684,0.07916 25.70842,0.0087 v 0"
         clip-path="url(#p717472ede8)"
         style="fill:none;stroke:#d62728;stroke-width:0.73088;stroke-linecap:square;stroke-opacity:0.666667"
         id="path5895" />
    </g>
    <g
       id="line2d_11"
       style="stroke-width:0.73088">
      <path
         d="m 8.251816,61.803547 43.13999,0.100229 5.07943,0.239597 3.238908,0.36881 2.316372,0.461107 1.854712,0.547689 1.856072,0.761264 1.857363,1.030616 1.858582,1.352493 1.859732,1.709348 1.860813,2.06259 2.327427,2.95992 2.794804,3.601525 1.398106,1.483392 0.932311,0.735153 0.932494,0.450079 0.932667,0.09067 0.466396,-0.112768 0.466436,-0.230258 0.932988,-0.84682 0.933136,-1.411673 0.933274,-2.02323 0.933403,-2.661668 0.933524,-3.301961 1.400494,-6.084177 1.400717,-7.222436 5.137385,-28.293212 0.934234,-3.814441 0.934263,-2.943795 0.934283,-1.940449 0.467146,-0.564233 0.467148,-0.283772 h 0.467144 l 0.46715,0.283772 0.46715,0.564233 0.46714,0.838128 0.93427,2.456166 0.93426,3.398107 0.93421,4.188772 1.40125,7.365409 4.66975,25.967751 1.40049,6.084177 0.93353,3.301961 0.9334,2.661668 0.93328,2.02323 0.93313,1.411673 0.93299,0.84682 0.93283,0.343026 0.93267,-0.09067 0.93249,-0.450079 0.93231,-0.735152 1.39811,-1.483393 2.32914,-2.983566 2.79309,-3.577879 1.86081,-2.06259 1.85973,-1.709348 1.85859,-1.352493 1.85736,-1.030616 1.85607,-0.761264 2.31817,-0.657377 2.31591,-0.420618 3.23821,-0.334353 4.61713,-0.204856 8.28128,-0.08826 34.85871,-0.01197 v 0"
         clip-path="url(#p717472ede8)"
         style="fill:none;stroke:#ffffff;stroke-width:2.00992;stroke-linecap:square"
         id="path5898" />
    </g>
    <g
       id="line2d_12"
       style="stroke-width:0.73088">
      <path
         d="m 8.251816,61.803547 43.13999,0.100229 5.07943,0.239597 3.238908,0.36881 2.316372,0.461107 1.854712,0.547689 1.856072,0.761264 1.857363,1.030616 1.858582,1.352493 1.859732,1.709348 1.860813,2.06259 2.327427,2.95992 2.794804,3.601525 1.398106,1.483392 0.932311,0.735153 0.932494,0.450079 0.932667,0.09067 0.466396,-0.112768 0.466436,-0.230258 0.932988,-0.84682 0.933136,-1.411673 0.933274,-2.02323 0.933403,-2.661668 0.933524,-3.301961 1.400494,-6.084177 1.400717,-7.222436 5.137385,-28.293212 0.934234,-3.814441 0.934263,-2.943795 0.934283,-1.940449 0.467146,-0.564233 0.467148,-0.283772 h 0.467144 l 0.46715,0.283772 0.46715,0.564233 0.46714,0.838128 0.93427,2.456166 0.93426,3.398107 0.93421,4.188772 1.40125,7.365409 4.66975,25.967751 1.40049,6.084177 0.93353,3.301961 0.9334,2.661668 0.93328,2.02323 0.93313,1.411673 0.93299,0.84682 0.93283,0.343026 0.93267,-0.09067 0.93249,-0.450079 0.93231,-0.735152 1.39811,-1.483393 2.32914,-2.983566 2.79309,-3.577879 1.86081,-2.06259 1.85973,-1.709348 1.85859,-1.352493 1.85736,-1.030616 1.85607,-0.761264 2.31817,-0.657377 2.31591,-0.420618 3.23821,-0.334353 4.61713,-0.204856 8.28128,-0.08826 34.85871,-0.01197 v 0"
         clip-path="url(#p717472ede8)"
         style="fill:none;stroke:#d62728;stroke-width:0.73088;stroke-linecap:square;stroke-opacity:0.833333"
         id="path5901" />
    </g>
    <g
       id="line2d_13"
       style="stroke-width:0.73088">
      <path
         d="m 8.251816,61.80119 15.715231,0.0069 16.85055,-0.01453 15.653639,0.100429 5.091822,0.212553 2.782063,0.327885 2.320704,0.482211 1.857981,0.586251 1.859166,0.847606 1.39511,0.866967 1.395708,1.114028 1.396276,1.401218 1.396814,1.721183 1.397324,2.063198 1.397802,2.411427 1.864432,3.721295 2.331557,5.238338 2.79918,6.270141 1.400057,2.612837 0.933524,1.363324 0.933637,0.960947 0.93374,0.476574 0.466905,0.03305 0.466929,-0.11497 0.46695,-0.270242 0.46697,-0.431684 0.933997,-1.3661 0.934065,-2.052743 0.934124,-2.736511 0.934175,-3.389564 1.401338,-6.17092 1.868546,-9.732277 4.204278,-22.805466 1.40134,-6.17092 0.93418,-3.389563 0.93412,-2.736511 0.93407,-2.052744 0.93399,-1.3661 0.46697,-0.431684 0.46695,-0.270242 0.46693,-0.11497 0.46691,0.03305 0.46688,0.172867 0.93369,0.728628 0.93358,1.172696 0.93346,1.532549 1.39997,2.78722 2.79895,6.367603 2.33134,5.140069 1.86424,3.58383 1.39765,2.29594 1.39715,1.947584 1.39664,1.611469 1.39609,1.301419 1.39551,1.026944 1.39491,0.794316 1.85887,0.773467 1.85768,0.534308 2.32029,0.437736 2.78154,0.291412 4.16605,0.167201 8.30669,0.09115 25.56425,0.01148 14.81088,9.14e-4 v 0"
         clip-path="url(#p717472ede8)"
         style="fill:none;stroke:#ffffff;stroke-width:2.00992;stroke-linecap:square"
         id="path5904" />
    </g>
    <g
       id="line2d_14"
       style="stroke-width:0.73088">
      <path
         d="m 8.251816,61.80119 15.715231,0.0069 16.85055,-0.01453 15.653639,0.100429 5.091822,0.212553 2.782063,0.327885 2.320704,0.482211 1.857981,0.586251 1.859166,0.847606 1.39511,0.866967 1.395708,1.114028 1.396276,1.401218 1.396814,1.721183 1.397324,2.063198 1.397802,2.411427 1.864432,3.721295 2.331557,5.238338 2.79918,6.270141 1.400057,2.612837 0.933524,1.363324 0.933637,0.960947 0.93374,0.476574 0.466905,0.03305 0.466929,-0.11497 0.46695,-0.270242 0.46697,-0.431684 0.933997,-1.3661 0.934065,-2.052743 0.934124,-2.736511 0.934175,-3.389564 1.401338,-6.17092 1.868546,-9.732277 4.204278,-22.805466 1.40134,-6.17092 0.93418,-3.389563 0.93412,-2.736511 0.93407,-2.052744 0.93399,-1.3661 0.46697,-0.431684 0.46695,-0.270242 0.46693,-0.11497 0.46691,0.03305 0.46688,0.172867 0.93369,0.728628 0.93358,1.172696 0.93346,1.532549 1.39997,2.78722 2.79895,6.367603 2.33134,5.140069 1.86424,3.58383 1.39765,2.29594 1.39715,1.947584 1.39664,1.611469 1.39609,1.301419 1.39551,1.026944 1.39491,0.794316 1.85887,0.773467 1.85768,0.534308 2.32029,0.437736 2.78154,0.291412 4.16605,0.167201 8.30669,0.09115 25.56425,0.01148 14.81088,9.14e-4 v 0"
         clip-path="url(#p717472ede8)"
         style="fill:none;stroke:#d62728;stroke-width:0.73088;stroke-linecap:square"
         id="path5907" />
    </g>
  </g>
  <defs
     id="defs5915">
    <clipPath
       id="p717472ede8">
      <rect
         x="8.6400003"
         y="8.6400003"
         width="182.72"
         height="106.32687"
         id="rect5912" />
    </clipPath>
  </defs>
</svg>
